<?xml version="1.0" encoding="utf-8" standalone="no"?>
<!DOCTYPE svg PUBLIC "-//W3C//DTD SVG 1.1//EN"
  "http://www.w3.org/Graphics/SVG/1.1/DTD/svg11.dtd">
<svg xmlns:xlink="http://www.w3.org/1999/xlink" width="504.637187pt" height="473.285344pt" viewBox="0 0 504.637187 473.285344" xmlns="http://www.w3.org/2000/svg" version="1.1">
 <metadata>
  <rdf:RDF xmlns:dc="http://purl.org/dc/elements/1.1/" xmlns:cc="http://creativecommons.org/ns#" xmlns:rdf="http://www.w3.org/1999/02/22-rdf-syntax-ns#">
   <cc:Work>
    <dc:type rdf:resource="http://purl.org/dc/dcmitype/StillImage"/>
    <dc:date>2026-06-16T16:45:17.581877</dc:date>
    <dc:format>image/svg+xml</dc:format>
    <dc:creator>
     <cc:Agent>
      <dc:title>Matplotlib v3.11.0, https://matplotlib.org/</dc:title>
     </cc:Agent>
    </dc:creator>
   </cc:Work>
  </rdf:RDF>
 </metadata>
 <defs>
  <style type="text/css">*{stroke-linejoin: round; stroke-linecap: butt}</style>
 </defs>
 <g id="figure_1">
  <g id="patch_1">
   <path d="M 0 473.285344 
L 504.637187 473.285344 
L 504.637187 0 
L 0 0 
z
" style="fill: #fafbfc"/>
  </g>
  <g id="axes_1">
   <g id="patch_2">
    <path d="M 45.289531 408.375 
L 399.547188 408.375 
L 399.547188 54.117344 
L 45.289531 54.117344 
z
" style="fill: #ffffff"/>
   </g>
   <g id="matplotlib.axis_1">
    <g id="xtick_1">
     <g id="line2d_1">
      <path d="M 45.775591 408.375 
L 45.775591 54.117344 
" clip-path="url(#p3355c86e6b)" style="fill: none; stroke: #dce3e8; stroke-opacity: 0.55; stroke-width: 0.7; stroke-linecap: square"/>
     </g>
     <g id="line2d_2"/>
     <g id="text_1">
      <!-- 0 -->
      <g style="fill: #657786" transform="translate(42.753404 421.592773) scale(0.095 -0.095)">
       <defs>
        <path id="DejaVuSans-13" d="M 2034 4250 
Q 1547 4250 1301 3770 
Q 1056 3291 1056 2328 
Q 1056 1369 1301 889 
Q 1547 409 2034 409 
Q 2525 409 2770 889 
Q 3016 1369 3016 2328 
Q 3016 3291 2770 3770 
Q 2525 4250 2034 4250 
z
M 2034 4750 
Q 2819 4750 3233 4129 
Q 3647 3509 3647 2328 
Q 3647 1150 3233 529 
Q 2819 -91 2034 -91 
Q 1250 -91 836 529 
Q 422 1150 422 2328 
Q 422 3509 836 4129 
Q 1250 4750 2034 4750 
z
" transform="scale(0.015625)"/>
       </defs>
       <use xlink:href="#DejaVuSans-13"/>
      </g>
     </g>
    </g>
    <g id="xtick_2">
     <g id="line2d_3">
      <path d="M 87.237584 408.375 
L 87.237584 54.117344 
" clip-path="url(#p3355c86e6b)" style="fill: none; stroke: #dce3e8; stroke-opacity: 0.55; stroke-width: 0.7; stroke-linecap: square"/>
     </g>
     <g id="line2d_4"/>
     <g id="text_2">
      <!-- 10 -->
      <g style="fill: #657786" transform="translate(81.193209 421.592773) scale(0.095 -0.095)">
       <defs>
        <path id="DejaVuSans-14" d="M 794 531 
L 1825 531 
L 1825 4091 
L 703 3866 
L 703 4441 
L 1819 4666 
L 2450 4666 
L 2450 531 
L 3481 531 
L 3481 0 
L 794 0 
L 794 531 
z
" transform="scale(0.015625)"/>
       </defs>
       <use xlink:href="#DejaVuSans-14"/>
       <use xlink:href="#DejaVuSans-13" transform="translate(63.625 0)"/>
      </g>
     </g>
    </g>
    <g id="xtick_3">
     <g id="line2d_5">
      <path d="M 128.699577 408.375 
L 128.699577 54.117344 
" clip-path="url(#p3355c86e6b)" style="fill: none; stroke: #dce3e8; stroke-opacity: 0.55; stroke-width: 0.7; stroke-linecap: square"/>
     </g>
     <g id="line2d_6"/>
     <g id="text_3">
      <!-- 20 -->
      <g style="fill: #657786" transform="translate(122.655202 421.592773) scale(0.095 -0.095)">
       <defs>
        <path id="DejaVuSans-15" d="M 1228 531 
L 3431 531 
L 3431 0 
L 469 0 
L 469 531 
Q 828 903 1448 1529 
Q 2069 2156 2228 2338 
Q 2531 2678 2651 2914 
Q 2772 3150 2772 3378 
Q 2772 3750 2511 3984 
Q 2250 4219 1831 4219 
Q 1534 4219 1204 4116 
Q 875 4013 500 3803 
L 500 4441 
Q 881 4594 1212 4672 
Q 1544 4750 1819 4750 
Q 2544 4750 2975 4387 
Q 3406 4025 3406 3419 
Q 3406 3131 3298 2873 
Q 3191 2616 2906 2266 
Q 2828 2175 2409 1742 
Q 1991 1309 1228 531 
z
" transform="scale(0.015625)"/>
       </defs>
       <use xlink:href="#DejaVuSans-15"/>
       <use xlink:href="#DejaVuSans-13" transform="translate(63.625 0)"/>
      </g>
     </g>
    </g>
    <g id="xtick_4">
     <g id="line2d_7">
      <path d="M 170.161569 408.375 
L 170.161569 54.117344 
" clip-path="url(#p3355c86e6b)" style="fill: none; stroke: #dce3e8; stroke-opacity: 0.55; stroke-width: 0.7; stroke-linecap: square"/>
     </g>
     <g id="line2d_8"/>
     <g id="text_4">
      <!-- 30 -->
      <g style="fill: #657786" transform="translate(164.117194 421.592773) scale(0.095 -0.095)">
       <defs>
        <path id="DejaVuSans-16" d="M 2597 2516 
Q 3050 2419 3304 2112 
Q 3559 1806 3559 1356 
Q 3559 666 3084 287 
Q 2609 -91 1734 -91 
Q 1441 -91 1130 -33 
Q 819 25 488 141 
L 488 750 
Q 750 597 1062 519 
Q 1375 441 1716 441 
Q 2309 441 2620 675 
Q 2931 909 2931 1356 
Q 2931 1769 2642 2001 
Q 2353 2234 1838 2234 
L 1294 2234 
L 1294 2753 
L 1863 2753 
Q 2328 2753 2575 2939 
Q 2822 3125 2822 3475 
Q 2822 3834 2567 4026 
Q 2313 4219 1838 4219 
Q 1578 4219 1281 4162 
Q 984 4106 628 3988 
L 628 4550 
Q 988 4650 1302 4700 
Q 1616 4750 1894 4750 
Q 2613 4750 3031 4423 
Q 3450 4097 3450 3541 
Q 3450 3153 3228 2886 
Q 3006 2619 2597 2516 
z
" transform="scale(0.015625)"/>
       </defs>
       <use xlink:href="#DejaVuSans-16"/>
       <use xlink:href="#DejaVuSans-13" transform="translate(63.625 0)"/>
      </g>
     </g>
    </g>
    <g id="xtick_5">
     <g id="line2d_9">
      <path d="M 211.623562 408.375 
L 211.623562 54.117344 
" clip-path="url(#p3355c86e6b)" style="fill: none; stroke: #dce3e8; stroke-opacity: 0.55; stroke-width: 0.7; stroke-linecap: square"/>
     </g>
     <g id="line2d_10"/>
     <g id="text_5">
      <!-- 40 -->
      <g style="fill: #657786" transform="translate(205.579187 421.592773) scale(0.095 -0.095)">
       <defs>
        <path id="DejaVuSans-17" d="M 2419 4116 
L 825 1625 
L 2419 1625 
L 2419 4116 
z
M 2253 4666 
L 3047 4666 
L 3047 1625 
L 3713 1625 
L 3713 1100 
L 3047 1100 
L 3047 0 
L 2419 0 
L 2419 1100 
L 313 1100 
L 313 1709 
L 2253 4666 
z
" transform="scale(0.015625)"/>
       </defs>
       <use xlink:href="#DejaVuSans-17"/>
       <use xlink:href="#DejaVuSans-13" transform="translate(63.625 0)"/>
      </g>
     </g>
    </g>
    <g id="xtick_6">
     <g id="line2d_11">
      <path d="M 253.085555 408.375 
L 253.085555 54.117344 
" clip-path="url(#p3355c86e6b)" style="fill: none; stroke: #dce3e8; stroke-opacity: 0.55; stroke-width: 0.7; stroke-linecap: square"/>
     </g>
     <g id="line2d_12"/>
     <g id="text_6">
      <!-- 50 -->
      <g style="fill: #657786" transform="translate(247.04118 421.592773) scale(0.095 -0.095)">
       <defs>
        <path id="DejaVuSans-18" d="M 691 4666 
L 3169 4666 
L 3169 4134 
L 1269 4134 
L 1269 2991 
Q 1406 3038 1543 3061 
Q 1681 3084 1819 3084 
Q 2600 3084 3056 2656 
Q 3513 2228 3513 1497 
Q 3513 744 3044 326 
Q 2575 -91 1722 -91 
Q 1428 -91 1123 -41 
Q 819 9 494 109 
L 494 744 
Q 775 591 1075 516 
Q 1375 441 1709 441 
Q 2250 441 2565 725 
Q 2881 1009 2881 1497 
Q 2881 1984 2565 2268 
Q 2250 2553 1709 2553 
Q 1456 2553 1204 2497 
Q 953 2441 691 2322 
L 691 4666 
z
" transform="scale(0.015625)"/>
       </defs>
       <use xlink:href="#DejaVuSans-18"/>
       <use xlink:href="#DejaVuSans-13" transform="translate(63.625 0)"/>
      </g>
     </g>
    </g>
    <g id="xtick_7">
     <g id="line2d_13">
      <path d="M 294.547548 408.375 
L 294.547548 54.117344 
" clip-path="url(#p3355c86e6b)" style="fill: none; stroke: #dce3e8; stroke-opacity: 0.55; stroke-width: 0.7; stroke-linecap: square"/>
     </g>
     <g id="line2d_14"/>
     <g id="text_7">
      <!-- 60 -->
      <g style="fill: #657786" transform="translate(288.503173 421.592773) scale(0.095 -0.095)">
       <defs>
        <path id="DejaVuSans-19" d="M 2113 2584 
Q 1688 2584 1439 2293 
Q 1191 2003 1191 1497 
Q 1191 994 1439 701 
Q 1688 409 2113 409 
Q 2538 409 2786 701 
Q 3034 994 3034 1497 
Q 3034 2003 2786 2293 
Q 2538 2584 2113 2584 
z
M 3366 4563 
L 3366 3988 
Q 3128 4100 2886 4159 
Q 2644 4219 2406 4219 
Q 1781 4219 1451 3797 
Q 1122 3375 1075 2522 
Q 1259 2794 1537 2939 
Q 1816 3084 2150 3084 
Q 2853 3084 3261 2657 
Q 3669 2231 3669 1497 
Q 3669 778 3244 343 
Q 2819 -91 2113 -91 
Q 1303 -91 875 529 
Q 447 1150 447 2328 
Q 447 3434 972 4092 
Q 1497 4750 2381 4750 
Q 2619 4750 2861 4703 
Q 3103 4656 3366 4563 
z
" transform="scale(0.015625)"/>
       </defs>
       <use xlink:href="#DejaVuSans-19"/>
       <use xlink:href="#DejaVuSans-13" transform="translate(63.625 0)"/>
      </g>
     </g>
    </g>
    <g id="xtick_8">
     <g id="line2d_15">
      <path d="M 336.009541 408.375 
L 336.009541 54.117344 
" clip-path="url(#p3355c86e6b)" style="fill: none; stroke: #dce3e8; stroke-opacity: 0.55; stroke-width: 0.7; stroke-linecap: square"/>
     </g>
     <g id="line2d_16"/>
     <g id="text_8">
      <!-- 70 -->
      <g style="fill: #657786" transform="translate(329.965166 421.592773) scale(0.095 -0.095)">
       <defs>
        <path id="DejaVuSans-1a" d="M 525 4666 
L 3525 4666 
L 3525 4397 
L 1831 0 
L 1172 0 
L 2766 4134 
L 525 4134 
L 525 4666 
z
" transform="scale(0.015625)"/>
       </defs>
       <use xlink:href="#DejaVuSans-1a"/>
       <use xlink:href="#DejaVuSans-13" transform="translate(63.625 0)"/>
      </g>
     </g>
    </g>
    <g id="xtick_9">
     <g id="line2d_17">
      <path d="M 377.471533 408.375 
L 377.471533 54.117344 
" clip-path="url(#p3355c86e6b)" style="fill: none; stroke: #dce3e8; stroke-opacity: 0.55; stroke-width: 0.7; stroke-linecap: square"/>
     </g>
     <g id="line2d_18"/>
     <g id="text_9">
      <!-- 80 -->
      <g style="fill: #657786" transform="translate(371.427158 421.592773) scale(0.095 -0.095)">
       <defs>
        <path id="DejaVuSans-1b" d="M 2034 2216 
Q 1584 2216 1326 1975 
Q 1069 1734 1069 1313 
Q 1069 891 1326 650 
Q 1584 409 2034 409 
Q 2484 409 2743 651 
Q 3003 894 3003 1313 
Q 3003 1734 2745 1975 
Q 2488 2216 2034 2216 
z
M 1403 2484 
Q 997 2584 770 2862 
Q 544 3141 544 3541 
Q 544 4100 942 4425 
Q 1341 4750 2034 4750 
Q 2731 4750 3128 4425 
Q 3525 4100 3525 3541 
Q 3525 3141 3298 2862 
Q 3072 2584 2669 2484 
Q 3125 2378 3379 2068 
Q 3634 1759 3634 1313 
Q 3634 634 3220 271 
Q 2806 -91 2034 -91 
Q 1263 -91 848 271 
Q 434 634 434 1313 
Q 434 1759 690 2068 
Q 947 2378 1403 2484 
z
M 1172 3481 
Q 1172 3119 1398 2916 
Q 1625 2713 2034 2713 
Q 2441 2713 2670 2916 
Q 2900 3119 2900 3481 
Q 2900 3844 2670 4047 
Q 2441 4250 2034 4250 
Q 1625 4250 1398 4047 
Q 1172 3844 1172 3481 
z
" transform="scale(0.015625)"/>
       </defs>
       <use xlink:href="#DejaVuSans-1b"/>
       <use xlink:href="#DejaVuSans-13" transform="translate(63.625 0)"/>
      </g>
     </g>
    </g>
    <g id="text_10">
     <!-- Actual next-day recovery score -->
     <g style="fill: #22313f" transform="translate(144.591797 441.473437) scale(0.1 -0.1)">
      <defs>
       <path id="DejaVuSans-24" d="M 2188 4044 
L 1331 1722 
L 3047 1722 
L 2188 4044 
z
M 1831 4666 
L 2547 4666 
L 4325 0 
L 3669 0 
L 3244 1197 
L 1141 1197 
L 716 0 
L 50 0 
L 1831 4666 
z
" transform="scale(0.015625)"/>
       <path id="DejaVuSans-46" d="M 3122 3366 
L 3122 2828 
Q 2878 2963 2633 3030 
Q 2388 3097 2138 3097 
Q 1578 3097 1268 2742 
Q 959 2388 959 1747 
Q 959 1106 1268 751 
Q 1578 397 2138 397 
Q 2388 397 2633 464 
Q 2878 531 3122 666 
L 3122 134 
Q 2881 22 2623 -34 
Q 2366 -91 2075 -91 
Q 1284 -91 818 406 
Q 353 903 353 1747 
Q 353 2603 823 3093 
Q 1294 3584 2113 3584 
Q 2378 3584 2631 3529 
Q 2884 3475 3122 3366 
z
" transform="scale(0.015625)"/>
       <path id="DejaVuSans-57" d="M 1172 4494 
L 1172 3500 
L 2356 3500 
L 2356 3053 
L 1172 3053 
L 1172 1153 
Q 1172 725 1289 603 
Q 1406 481 1766 481 
L 2356 481 
L 2356 0 
L 1766 0 
Q 1100 0 847 248 
Q 594 497 594 1153 
L 594 3053 
L 172 3053 
L 172 3500 
L 594 3500 
L 594 4494 
L 1172 4494 
z
" transform="scale(0.015625)"/>
       <path id="DejaVuSans-58" d="M 544 1381 
L 544 3500 
L 1119 3500 
L 1119 1403 
Q 1119 906 1312 657 
Q 1506 409 1894 409 
Q 2359 409 2629 706 
Q 2900 1003 2900 1516 
L 2900 3500 
L 3475 3500 
L 3475 0 
L 2900 0 
L 2900 538 
Q 2691 219 2414 64 
Q 2138 -91 1772 -91 
Q 1169 -91 856 284 
Q 544 659 544 1381 
z
M 1991 3584 
L 1991 3584 
z
" transform="scale(0.015625)"/>
       <path id="DejaVuSans-44" d="M 2194 1759 
Q 1497 1759 1228 1600 
Q 959 1441 959 1056 
Q 959 750 1161 570 
Q 1363 391 1709 391 
Q 2188 391 2477 730 
Q 2766 1069 2766 1631 
L 2766 1759 
L 2194 1759 
z
M 3341 1997 
L 3341 0 
L 2766 0 
L 2766 531 
Q 2569 213 2275 61 
Q 1981 -91 1556 -91 
Q 1019 -91 701 211 
Q 384 513 384 1019 
Q 384 1609 779 1909 
Q 1175 2209 1959 2209 
L 2766 2209 
L 2766 2266 
Q 2766 2663 2505 2880 
Q 2244 3097 1772 3097 
Q 1472 3097 1187 3025 
Q 903 2953 641 2809 
L 641 3341 
Q 956 3463 1253 3523 
Q 1550 3584 1831 3584 
Q 2591 3584 2966 3190 
Q 3341 2797 3341 1997 
z
" transform="scale(0.015625)"/>
       <path id="DejaVuSans-4f" d="M 603 4863 
L 1178 4863 
L 1178 0 
L 603 0 
L 603 4863 
z
" transform="scale(0.015625)"/>
       <path id="DejaVuSans-3" transform="scale(0.015625)"/>
       <path id="DejaVuSans-51" d="M 3513 2113 
L 3513 0 
L 2938 0 
L 2938 2094 
Q 2938 2591 2744 2837 
Q 2550 3084 2163 3084 
Q 1697 3084 1428 2787 
Q 1159 2491 1159 1978 
L 1159 0 
L 581 0 
L 581 3500 
L 1159 3500 
L 1159 2956 
Q 1366 3272 1645 3428 
Q 1925 3584 2291 3584 
Q 2894 3584 3203 3211 
Q 3513 2838 3513 2113 
z
" transform="scale(0.015625)"/>
       <path id="DejaVuSans-48" d="M 3597 1894 
L 3597 1613 
L 953 1613 
Q 991 1019 1311 708 
Q 1631 397 2203 397 
Q 2534 397 2845 478 
Q 3156 559 3463 722 
L 3463 178 
Q 3153 47 2828 -22 
Q 2503 -91 2169 -91 
Q 1331 -91 842 396 
Q 353 884 353 1716 
Q 353 2575 817 3079 
Q 1281 3584 2069 3584 
Q 2775 3584 3186 3129 
Q 3597 2675 3597 1894 
z
M 3022 2063 
Q 3016 2534 2758 2815 
Q 2500 3097 2075 3097 
Q 1594 3097 1305 2825 
Q 1016 2553 972 2059 
L 3022 2063 
z
" transform="scale(0.015625)"/>
       <path id="DejaVuSans-5b" d="M 3513 3500 
L 2247 1797 
L 3578 0 
L 2900 0 
L 1881 1375 
L 863 0 
L 184 0 
L 1544 1831 
L 300 3500 
L 978 3500 
L 1906 2253 
L 2834 3500 
L 3513 3500 
z
" transform="scale(0.015625)"/>
       <path id="DejaVuSans-10" d="M 313 2009 
L 1997 2009 
L 1997 1497 
L 313 1497 
L 313 2009 
z
" transform="scale(0.015625)"/>
       <path id="DejaVuSans-47" d="M 2906 2969 
L 2906 4863 
L 3481 4863 
L 3481 0 
L 2906 0 
L 2906 525 
Q 2725 213 2448 61 
Q 2172 -91 1784 -91 
Q 1150 -91 751 415 
Q 353 922 353 1747 
Q 353 2572 751 3078 
Q 1150 3584 1784 3584 
Q 2172 3584 2448 3432 
Q 2725 3281 2906 2969 
z
M 947 1747 
Q 947 1113 1208 752 
Q 1469 391 1925 391 
Q 2381 391 2643 752 
Q 2906 1113 2906 1747 
Q 2906 2381 2643 2742 
Q 2381 3103 1925 3103 
Q 1469 3103 1208 2742 
Q 947 2381 947 1747 
z
" transform="scale(0.015625)"/>
       <path id="DejaVuSans-5c" d="M 2059 -325 
Q 1816 -950 1584 -1140 
Q 1353 -1331 966 -1331 
L 506 -1331 
L 506 -850 
L 844 -850 
Q 1081 -850 1212 -737 
Q 1344 -625 1503 -206 
L 1606 56 
L 191 3500 
L 800 3500 
L 1894 763 
L 2988 3500 
L 3597 3500 
L 2059 -325 
z
" transform="scale(0.015625)"/>
       <path id="DejaVuSans-55" d="M 2631 2963 
Q 2534 3019 2420 3045 
Q 2306 3072 2169 3072 
Q 1681 3072 1420 2755 
Q 1159 2438 1159 1844 
L 1159 0 
L 581 0 
L 581 3500 
L 1159 3500 
L 1159 2956 
Q 1341 3275 1631 3429 
Q 1922 3584 2338 3584 
Q 2397 3584 2469 3576 
Q 2541 3569 2628 3553 
L 2631 2963 
z
" transform="scale(0.015625)"/>
       <path id="DejaVuSans-52" d="M 1959 3097 
Q 1497 3097 1228 2736 
Q 959 2375 959 1747 
Q 959 1119 1226 758 
Q 1494 397 1959 397 
Q 2419 397 2687 759 
Q 2956 1122 2956 1747 
Q 2956 2369 2687 2733 
Q 2419 3097 1959 3097 
z
M 1959 3584 
Q 2709 3584 3137 3096 
Q 3566 2609 3566 1747 
Q 3566 888 3137 398 
Q 2709 -91 1959 -91 
Q 1206 -91 779 398 
Q 353 888 353 1747 
Q 353 2609 779 3096 
Q 1206 3584 1959 3584 
z
" transform="scale(0.015625)"/>
       <path id="DejaVuSans-59" d="M 191 3500 
L 800 3500 
L 1894 563 
L 2988 3500 
L 3597 3500 
L 2284 0 
L 1503 0 
L 191 3500 
z
" transform="scale(0.015625)"/>
       <path id="DejaVuSans-56" d="M 2834 3397 
L 2834 2853 
Q 2591 2978 2328 3040 
Q 2066 3103 1784 3103 
Q 1356 3103 1142 2972 
Q 928 2841 928 2578 
Q 928 2378 1081 2264 
Q 1234 2150 1697 2047 
L 1894 2003 
Q 2506 1872 2764 1633 
Q 3022 1394 3022 966 
Q 3022 478 2636 193 
Q 2250 -91 1575 -91 
Q 1294 -91 989 -36 
Q 684 19 347 128 
L 347 722 
Q 666 556 975 473 
Q 1284 391 1588 391 
Q 1994 391 2212 530 
Q 2431 669 2431 922 
Q 2431 1156 2273 1281 
Q 2116 1406 1581 1522 
L 1381 1569 
Q 847 1681 609 1914 
Q 372 2147 372 2553 
Q 372 3047 722 3315 
Q 1072 3584 1716 3584 
Q 2034 3584 2315 3537 
Q 2597 3491 2834 3397 
z
" transform="scale(0.015625)"/>
      </defs>
      <use xlink:href="#DejaVuSans-24"/>
      <use xlink:href="#DejaVuSans-46" transform="translate(66.65625 0)"/>
      <use xlink:href="#DejaVuSans-57" transform="translate(121.640625 0)"/>
      <use xlink:href="#DejaVuSans-58" transform="translate(160.84375 0)"/>
      <use xlink:href="#DejaVuSans-44" transform="translate(224.21875 0)"/>
      <use xlink:href="#DejaVuSans-4f" transform="translate(285.5 0)"/>
      <use xlink:href="#DejaVuSans-3" transform="translate(313.28125 0)"/>
      <use xlink:href="#DejaVuSans-51" transform="translate(345.0625 0)"/>
      <use xlink:href="#DejaVuSans-48" transform="translate(408.4375 0)"/>
      <use xlink:href="#DejaVuSans-5b" transform="translate(468.21875 0)"/>
      <use xlink:href="#DejaVuSans-57" transform="translate(527.40625 0)"/>
      <use xlink:href="#DejaVuSans-10" transform="translate(566.609375 0)"/>
      <use xlink:href="#DejaVuSans-47" transform="translate(602.6875 0)"/>
      <use xlink:href="#DejaVuSans-44" transform="translate(666.171875 0)"/>
      <use xlink:href="#DejaVuSans-5c" transform="translate(727.453125 0)"/>
      <use xlink:href="#DejaVuSans-3" transform="translate(786.640625 0)"/>
      <use xlink:href="#DejaVuSans-55" transform="translate(818.421875 0)"/>
      <use xlink:href="#DejaVuSans-48" transform="translate(857.328125 0)"/>
      <use xlink:href="#DejaVuSans-46" transform="translate(918.859375 0)"/>
      <use xlink:href="#DejaVuSans-52" transform="translate(973.84375 0)"/>
      <use xlink:href="#DejaVuSans-59" transform="translate(1035.03125 0)"/>
      <use xlink:href="#DejaVuSans-48" transform="translate(1094.21875 0)"/>
      <use xlink:href="#DejaVuSans-55" transform="translate(1155.75 0)"/>
      <use xlink:href="#DejaVuSans-5c" transform="translate(1196.859375 0)"/>
      <use xlink:href="#DejaVuSans-3" transform="translate(1256.046875 0)"/>
      <use xlink:href="#DejaVuSans-56" transform="translate(1287.828125 0)"/>
      <use xlink:href="#DejaVuSans-46" transform="translate(1339.921875 0)"/>
      <use xlink:href="#DejaVuSans-52" transform="translate(1394.90625 0)"/>
      <use xlink:href="#DejaVuSans-55" transform="translate(1456.09375 0)"/>
      <use xlink:href="#DejaVuSans-48" transform="translate(1495 0)"/>
     </g>
    </g>
   </g>
   <g id="matplotlib.axis_2">
    <g id="ytick_1">
     <g id="line2d_19">
      <path d="M 45.289531 407.88894 
L 399.547188 407.88894 
" clip-path="url(#p3355c86e6b)" style="fill: none; stroke: #dce3e8; stroke-opacity: 0.55; stroke-width: 0.7; stroke-linecap: square"/>
     </g>
     <g id="line2d_20"/>
     <g id="text_11">
      <!-- 0 -->
      <g style="fill: #657786" transform="translate(33.245156 411.497827) scale(0.095 -0.095)">
       <use xlink:href="#DejaVuSans-13"/>
      </g>
     </g>
    </g>
    <g id="ytick_2">
     <g id="line2d_21">
      <path d="M 45.289531 366.426947 
L 399.547188 366.426947 
" clip-path="url(#p3355c86e6b)" style="fill: none; stroke: #dce3e8; stroke-opacity: 0.55; stroke-width: 0.7; stroke-linecap: square"/>
     </g>
     <g id="line2d_22"/>
     <g id="text_12">
      <!-- 10 -->
      <g style="fill: #657786" transform="translate(27.200781 370.035834) scale(0.095 -0.095)">
       <use xlink:href="#DejaVuSans-14"/>
       <use xlink:href="#DejaVuSans-13" transform="translate(63.625 0)"/>
      </g>
     </g>
    </g>
    <g id="ytick_3">
     <g id="line2d_23">
      <path d="M 45.289531 324.964955 
L 399.547188 324.964955 
" clip-path="url(#p3355c86e6b)" style="fill: none; stroke: #dce3e8; stroke-opacity: 0.55; stroke-width: 0.7; stroke-linecap: square"/>
     </g>
     <g id="line2d_24"/>
     <g id="text_13">
      <!-- 20 -->
      <g style="fill: #657786" transform="translate(27.200781 328.573841) scale(0.095 -0.095)">
       <use xlink:href="#DejaVuSans-15"/>
       <use xlink:href="#DejaVuSans-13" transform="translate(63.625 0)"/>
      </g>
     </g>
    </g>
    <g id="ytick_4">
     <g id="line2d_25">
      <path d="M 45.289531 283.502962 
L 399.547188 283.502962 
" clip-path="url(#p3355c86e6b)" style="fill: none; stroke: #dce3e8; stroke-opacity: 0.55; stroke-width: 0.7; stroke-linecap: square"/>
     </g>
     <g id="line2d_26"/>
     <g id="text_14">
      <!-- 30 -->
      <g style="fill: #657786" transform="translate(27.200781 287.111848) scale(0.095 -0.095)">
       <use xlink:href="#DejaVuSans-16"/>
       <use xlink:href="#DejaVuSans-13" transform="translate(63.625 0)"/>
      </g>
     </g>
    </g>
    <g id="ytick_5">
     <g id="line2d_27">
      <path d="M 45.289531 242.040969 
L 399.547188 242.040969 
" clip-path="url(#p3355c86e6b)" style="fill: none; stroke: #dce3e8; stroke-opacity: 0.55; stroke-width: 0.7; stroke-linecap: square"/>
     </g>
     <g id="line2d_28"/>
     <g id="text_15">
      <!-- 40 -->
      <g style="fill: #657786" transform="translate(27.200781 245.649856) scale(0.095 -0.095)">
       <use xlink:href="#DejaVuSans-17"/>
       <use xlink:href="#DejaVuSans-13" transform="translate(63.625 0)"/>
      </g>
     </g>
    </g>
    <g id="ytick_6">
     <g id="line2d_29">
      <path d="M 45.289531 200.578976 
L 399.547188 200.578976 
" clip-path="url(#p3355c86e6b)" style="fill: none; stroke: #dce3e8; stroke-opacity: 0.55; stroke-width: 0.7; stroke-linecap: square"/>
     </g>
     <g id="line2d_30"/>
     <g id="text_16">
      <!-- 50 -->
      <g style="fill: #657786" transform="translate(27.200781 204.187863) scale(0.095 -0.095)">
       <use xlink:href="#DejaVuSans-18"/>
       <use xlink:href="#DejaVuSans-13" transform="translate(63.625 0)"/>
      </g>
     </g>
    </g>
    <g id="ytick_7">
     <g id="line2d_31">
      <path d="M 45.289531 159.116983 
L 399.547188 159.116983 
" clip-path="url(#p3355c86e6b)" style="fill: none; stroke: #dce3e8; stroke-opacity: 0.55; stroke-width: 0.7; stroke-linecap: square"/>
     </g>
     <g id="line2d_32"/>
     <g id="text_17">
      <!-- 60 -->
      <g style="fill: #657786" transform="translate(27.200781 162.72587) scale(0.095 -0.095)">
       <use xlink:href="#DejaVuSans-19"/>
       <use xlink:href="#DejaVuSans-13" transform="translate(63.625 0)"/>
      </g>
     </g>
    </g>
    <g id="ytick_8">
     <g id="line2d_33">
      <path d="M 45.289531 117.654991 
L 399.547188 117.654991 
" clip-path="url(#p3355c86e6b)" style="fill: none; stroke: #dce3e8; stroke-opacity: 0.55; stroke-width: 0.7; stroke-linecap: square"/>
     </g>
     <g id="line2d_34"/>
     <g id="text_18">
      <!-- 70 -->
      <g style="fill: #657786" transform="translate(27.200781 121.263877) scale(0.095 -0.095)">
       <use xlink:href="#DejaVuSans-1a"/>
       <use xlink:href="#DejaVuSans-13" transform="translate(63.625 0)"/>
      </g>
     </g>
    </g>
    <g id="ytick_9">
     <g id="line2d_35">
      <path d="M 45.289531 76.192998 
L 399.547188 76.192998 
" clip-path="url(#p3355c86e6b)" style="fill: none; stroke: #dce3e8; stroke-opacity: 0.55; stroke-width: 0.7; stroke-linecap: square"/>
     </g>
     <g id="line2d_36"/>
     <g id="text_19">
      <!-- 80 -->
      <g style="fill: #657786" transform="translate(27.200781 79.801885) scale(0.095 -0.095)">
       <use xlink:href="#DejaVuSans-1b"/>
       <use xlink:href="#DejaVuSans-13" transform="translate(63.625 0)"/>
      </g>
     </g>
    </g>
    <g id="text_20">
     <!-- Predicted next-day recovery score -->
     <g style="fill: #22313f" transform="translate(14.798438 316.881328) rotate(-90) scale(0.1 -0.1)">
      <defs>
       <path id="DejaVuSans-33" d="M 1259 4147 
L 1259 2394 
L 2053 2394 
Q 2494 2394 2734 2622 
Q 2975 2850 2975 3272 
Q 2975 3691 2734 3919 
Q 2494 4147 2053 4147 
L 1259 4147 
z
M 628 4666 
L 2053 4666 
Q 2838 4666 3239 4311 
Q 3641 3956 3641 3272 
Q 3641 2581 3239 2228 
Q 2838 1875 2053 1875 
L 1259 1875 
L 1259 0 
L 628 0 
L 628 4666 
z
" transform="scale(0.015625)"/>
       <path id="DejaVuSans-4c" d="M 603 3500 
L 1178 3500 
L 1178 0 
L 603 0 
L 603 3500 
z
M 603 4863 
L 1178 4863 
L 1178 4134 
L 603 4134 
L 603 4863 
z
" transform="scale(0.015625)"/>
      </defs>
      <use xlink:href="#DejaVuSans-33"/>
      <use xlink:href="#DejaVuSans-55" transform="translate(58.546875 0)"/>
      <use xlink:href="#DejaVuSans-48" transform="translate(97.453125 0)"/>
      <use xlink:href="#DejaVuSans-47" transform="translate(158.984375 0)"/>
      <use xlink:href="#DejaVuSans-4c" transform="translate(222.46875 0)"/>
      <use xlink:href="#DejaVuSans-46" transform="translate(250.25 0)"/>
      <use xlink:href="#DejaVuSans-57" transform="translate(305.234375 0)"/>
      <use xlink:href="#DejaVuSans-48" transform="translate(344.4375 0)"/>
      <use xlink:href="#DejaVuSans-47" transform="translate(405.96875 0)"/>
      <use xlink:href="#DejaVuSans-3" transform="translate(469.453125 0)"/>
      <use xlink:href="#DejaVuSans-51" transform="translate(501.234375 0)"/>
      <use xlink:href="#DejaVuSans-48" transform="translate(564.609375 0)"/>
      <use xlink:href="#DejaVuSans-5b" transform="translate(624.390625 0)"/>
      <use xlink:href="#DejaVuSans-57" transform="translate(683.578125 0)"/>
      <use xlink:href="#DejaVuSans-10" transform="translate(722.78125 0)"/>
      <use xlink:href="#DejaVuSans-47" transform="translate(758.859375 0)"/>
      <use xlink:href="#DejaVuSans-44" transform="translate(822.34375 0)"/>
      <use xlink:href="#DejaVuSans-5c" transform="translate(883.625 0)"/>
      <use xlink:href="#DejaVuSans-3" transform="translate(942.8125 0)"/>
      <use xlink:href="#DejaVuSans-55" transform="translate(974.59375 0)"/>
      <use xlink:href="#DejaVuSans-48" transform="translate(1013.5 0)"/>
      <use xlink:href="#DejaVuSans-46" transform="translate(1075.03125 0)"/>
      <use xlink:href="#DejaVuSans-52" transform="translate(1130.015625 0)"/>
      <use xlink:href="#DejaVuSans-59" transform="translate(1191.203125 0)"/>
      <use xlink:href="#DejaVuSans-48" transform="translate(1250.390625 0)"/>
      <use xlink:href="#DejaVuSans-55" transform="translate(1311.921875 0)"/>
      <use xlink:href="#DejaVuSans-5c" transform="translate(1353.03125 0)"/>
      <use xlink:href="#DejaVuSans-3" transform="translate(1412.21875 0)"/>
      <use xlink:href="#DejaVuSans-56" transform="translate(1444 0)"/>
      <use xlink:href="#DejaVuSans-46" transform="translate(1496.09375 0)"/>
      <use xlink:href="#DejaVuSans-52" transform="translate(1551.078125 0)"/>
      <use xlink:href="#DejaVuSans-55" transform="translate(1612.265625 0)"/>
      <use xlink:href="#DejaVuSans-48" transform="translate(1651.171875 0)"/>
     </g>
    </g>
   </g>
   <g id="line2d_37">
    <path d="M 45.289531 408.375 
L 399.547188 54.117344 
" clip-path="url(#p3355c86e6b)" style="fill: none; stroke-dasharray: 7.5,6; stroke-dashoffset: 0; stroke: #8296a3; stroke-width: 1.5"/>
   </g>
   <g id="patch_3">
    <path d="M 45.289531 408.375 
L 45.289531 54.117344 
" style="fill: none; stroke: #dce3e8; stroke-width: 0.8; stroke-linejoin: miter; stroke-linecap: square"/>
   </g>
   <g id="patch_4">
    <path d="M 45.289531 408.375 
L 399.547188 408.375 
" style="fill: none; stroke: #dce3e8; stroke-width: 0.8; stroke-linejoin: miter; stroke-linecap: square"/>
   </g>
   <g id="PathCollection_1">
    <defs>
     <path id="m97787c51de" d="M 0 4 
C 1.060812 4 2.078319 3.578535 2.828427 2.828427 
C 3.578535 2.078319 4 1.060812 4 0 
C 4 -1.060812 3.578535 -2.078319 2.828427 -2.828427 
C 2.078319 -3.578535 1.060812 -4 0 -4 
C -1.060812 -4 -2.078319 -3.578535 -2.828427 -2.828427 
C -3.578535 -2.078319 -4 -1.060812 -4 0 
C -4 1.060812 -3.578535 2.078319 -2.828427 2.828427 
C -2.078319 3.578535 -1.060812 4 0 4 
z
" style="stroke: #ffffff; stroke-opacity: 0.88"/>
    </defs>
    <g clip-path="url(#p3355c86e6b)">
     <use xlink:href="#m97787c51de" x="314.224192" y="165.806037" style="fill: #d16b4e; fill-opacity: 0.88; stroke: #ffffff; stroke-opacity: 0.88"/>
     <use xlink:href="#m97787c51de" x="297.34672" y="163.09567" style="fill: #d16b4e; fill-opacity: 0.88; stroke: #ffffff; stroke-opacity: 0.88"/>
     <use xlink:href="#m97787c51de" x="335.284676" y="151.586061" style="fill: #d16b4e; fill-opacity: 0.88; stroke: #ffffff; stroke-opacity: 0.88"/>
     <use xlink:href="#m97787c51de" x="331.4723" y="151.673711" style="fill: #d16b4e; fill-opacity: 0.88; stroke: #ffffff; stroke-opacity: 0.88"/>
     <use xlink:href="#m97787c51de" x="280.467831" y="170.282546" style="fill: #d16b4e; fill-opacity: 0.88; stroke: #ffffff; stroke-opacity: 0.88"/>
     <use xlink:href="#m97787c51de" x="246.738517" y="181.453628" style="fill: #d16b4e; fill-opacity: 0.88; stroke: #ffffff; stroke-opacity: 0.88"/>
     <use xlink:href="#m97787c51de" x="305.78247" y="191.513667" style="fill: #d16b4e; fill-opacity: 0.88; stroke: #ffffff; stroke-opacity: 0.88"/>
     <use xlink:href="#m97787c51de" x="192.462786" y="182.801683" style="fill: #d16b4e; fill-opacity: 0.88; stroke: #ffffff; stroke-opacity: 0.88"/>
     <use xlink:href="#m97787c51de" x="245.188543" y="209.961463" style="fill: #d16b4e; fill-opacity: 0.88; stroke: #ffffff; stroke-opacity: 0.88"/>
     <use xlink:href="#m97787c51de" x="336.662481" y="189.790273" style="fill: #d16b4e; fill-opacity: 0.88; stroke: #ffffff; stroke-opacity: 0.88"/>
     <use xlink:href="#m97787c51de" x="313.443918" y="172.123955" style="fill: #d16b4e; fill-opacity: 0.88; stroke: #ffffff; stroke-opacity: 0.88"/>
     <use xlink:href="#m97787c51de" x="323.410063" y="173.003567" style="fill: #d16b4e; fill-opacity: 0.88; stroke: #ffffff; stroke-opacity: 0.88"/>
     <use xlink:href="#m97787c51de" x="290.470012" y="166.271615" style="fill: #d16b4e; fill-opacity: 0.88; stroke: #ffffff; stroke-opacity: 0.88"/>
     <use xlink:href="#m97787c51de" x="255.592696" y="172.133373" style="fill: #d16b4e; fill-opacity: 0.88; stroke: #ffffff; stroke-opacity: 0.88"/>
     <use xlink:href="#m97787c51de" x="251.389907" y="190.808278" style="fill: #d16b4e; fill-opacity: 0.88; stroke: #ffffff; stroke-opacity: 0.88"/>
     <use xlink:href="#m97787c51de" x="236.894521" y="182.787752" style="fill: #d16b4e; fill-opacity: 0.88; stroke: #ffffff; stroke-opacity: 0.88"/>
     <use xlink:href="#m97787c51de" x="119.830118" y="180.614085" style="fill: #d16b4e; fill-opacity: 0.88; stroke: #ffffff; stroke-opacity: 0.88"/>
     <use xlink:href="#m97787c51de" x="112.703932" y="257.495007" style="fill: #d16b4e; fill-opacity: 0.88; stroke: #ffffff; stroke-opacity: 0.88"/>
     <use xlink:href="#m97787c51de" x="108.330257" y="270.310362" style="fill: #d16b4e; fill-opacity: 0.88; stroke: #ffffff; stroke-opacity: 0.88"/>
     <use xlink:href="#m97787c51de" x="98.740624" y="279.523215" style="fill: #d16b4e; fill-opacity: 0.88; stroke: #ffffff; stroke-opacity: 0.88"/>
     <use xlink:href="#m97787c51de" x="69.721094" y="309.357016" style="fill: #d16b4e; fill-opacity: 0.88; stroke: #ffffff; stroke-opacity: 0.88"/>
     <use xlink:href="#m97787c51de" x="84.191847" y="309.09936" style="fill: #d16b4e; fill-opacity: 0.88; stroke: #ffffff; stroke-opacity: 0.88"/>
     <use xlink:href="#m97787c51de" x="81.990306" y="305.118073" style="fill: #d16b4e; fill-opacity: 0.88; stroke: #ffffff; stroke-opacity: 0.88"/>
     <use xlink:href="#m97787c51de" x="158.66264" y="277.694674" style="fill: #d16b4e; fill-opacity: 0.88; stroke: #ffffff; stroke-opacity: 0.88"/>
     <use xlink:href="#m97787c51de" x="225.686397" y="246.901596" style="fill: #d16b4e; fill-opacity: 0.88; stroke: #ffffff; stroke-opacity: 0.88"/>
     <use xlink:href="#m97787c51de" x="226.998713" y="213.331292" style="fill: #d16b4e; fill-opacity: 0.88; stroke: #ffffff; stroke-opacity: 0.88"/>
     <use xlink:href="#m97787c51de" x="233.28064" y="209.664936" style="fill: #d16b4e; fill-opacity: 0.88; stroke: #ffffff; stroke-opacity: 0.88"/>
     <use xlink:href="#m97787c51de" x="260.771795" y="204.439806" style="fill: #d16b4e; fill-opacity: 0.88; stroke: #ffffff; stroke-opacity: 0.88"/>
     <use xlink:href="#m97787c51de" x="253.481091" y="208.815054" style="fill: #d16b4e; fill-opacity: 0.88; stroke: #ffffff; stroke-opacity: 0.88"/>
     <use xlink:href="#m97787c51de" x="212.802537" y="213.111711" style="fill: #d16b4e; fill-opacity: 0.88; stroke: #ffffff; stroke-opacity: 0.88"/>
     <use xlink:href="#m97787c51de" x="164.756799" y="204.543136" style="fill: #d16b4e; fill-opacity: 0.88; stroke: #ffffff; stroke-opacity: 0.88"/>
     <use xlink:href="#m97787c51de" x="240.715118" y="223.885159" style="fill: #d16b4e; fill-opacity: 0.88; stroke: #ffffff; stroke-opacity: 0.88"/>
     <use xlink:href="#m97787c51de" x="178.67902" y="214.506517" style="fill: #d16b4e; fill-opacity: 0.88; stroke: #ffffff; stroke-opacity: 0.88"/>
     <use xlink:href="#m97787c51de" x="228.880808" y="217.615657" style="fill: #d16b4e; fill-opacity: 0.88; stroke: #ffffff; stroke-opacity: 0.88"/>
     <use xlink:href="#m97787c51de" x="252.743475" y="211.262117" style="fill: #d16b4e; fill-opacity: 0.88; stroke: #ffffff; stroke-opacity: 0.88"/>
     <use xlink:href="#m97787c51de" x="235.528561" y="201.091047" style="fill: #d16b4e; fill-opacity: 0.88; stroke: #ffffff; stroke-opacity: 0.88"/>
     <use xlink:href="#m97787c51de" x="289.070429" y="218.069526" style="fill: #d16b4e; fill-opacity: 0.88; stroke: #ffffff; stroke-opacity: 0.88"/>
     <use xlink:href="#m97787c51de" x="218.146035" y="195.397251" style="fill: #d16b4e; fill-opacity: 0.88; stroke: #ffffff; stroke-opacity: 0.88"/>
     <use xlink:href="#m97787c51de" x="278.566196" y="207.866847" style="fill: #d16b4e; fill-opacity: 0.88; stroke: #ffffff; stroke-opacity: 0.88"/>
     <use xlink:href="#m97787c51de" x="247.741454" y="222.64094" style="fill: #d16b4e; fill-opacity: 0.88; stroke: #ffffff; stroke-opacity: 0.88"/>
     <use xlink:href="#m97787c51de" x="120.18474" y="210.826779" style="fill: #d16b4e; fill-opacity: 0.88; stroke: #ffffff; stroke-opacity: 0.88"/>
     <use xlink:href="#m97787c51de" x="141.019648" y="266.778817" style="fill: #d16b4e; fill-opacity: 0.88; stroke: #ffffff; stroke-opacity: 0.88"/>
     <use xlink:href="#m97787c51de" x="90.235441" y="286.599894" style="fill: #d16b4e; fill-opacity: 0.88; stroke: #ffffff; stroke-opacity: 0.88"/>
     <use xlink:href="#m97787c51de" x="105.719697" y="292.136272" style="fill: #d16b4e; fill-opacity: 0.88; stroke: #ffffff; stroke-opacity: 0.88"/>
     <use xlink:href="#m97787c51de" x="133.87557" y="286.438237" style="fill: #d16b4e; fill-opacity: 0.88; stroke: #ffffff; stroke-opacity: 0.88"/>
     <use xlink:href="#m97787c51de" x="272.919204" y="266.959925" style="fill: #d16b4e; fill-opacity: 0.88; stroke: #ffffff; stroke-opacity: 0.88"/>
     <use xlink:href="#m97787c51de" x="270.823534" y="184.174156" style="fill: #d16b4e; fill-opacity: 0.88; stroke: #ffffff; stroke-opacity: 0.88"/>
     <use xlink:href="#m97787c51de" x="275.776706" y="178.738118" style="fill: #d16b4e; fill-opacity: 0.88; stroke: #ffffff; stroke-opacity: 0.88"/>
     <use xlink:href="#m97787c51de" x="272.679515" y="170.030971" style="fill: #d16b4e; fill-opacity: 0.88; stroke: #ffffff; stroke-opacity: 0.88"/>
     <use xlink:href="#m97787c51de" x="286.597641" y="166.839727" style="fill: #d16b4e; fill-opacity: 0.88; stroke: #ffffff; stroke-opacity: 0.88"/>
     <use xlink:href="#m97787c51de" x="333.019188" y="176.759051" style="fill: #d16b4e; fill-opacity: 0.88; stroke: #ffffff; stroke-opacity: 0.88"/>
     <use xlink:href="#m97787c51de" x="301.909713" y="173.127543" style="fill: #d16b4e; fill-opacity: 0.88; stroke: #ffffff; stroke-opacity: 0.88"/>
     <use xlink:href="#m97787c51de" x="277.907102" y="162.463877" style="fill: #d16b4e; fill-opacity: 0.88; stroke: #ffffff; stroke-opacity: 0.88"/>
     <use xlink:href="#m97787c51de" x="319.515669" y="162.312488" style="fill: #d16b4e; fill-opacity: 0.88; stroke: #ffffff; stroke-opacity: 0.88"/>
     <use xlink:href="#m97787c51de" x="260.615877" y="166.727334" style="fill: #d16b4e; fill-opacity: 0.88; stroke: #ffffff; stroke-opacity: 0.88"/>
     <use xlink:href="#m97787c51de" x="283.642373" y="187.069253" style="fill: #d16b4e; fill-opacity: 0.88; stroke: #ffffff; stroke-opacity: 0.88"/>
     <use xlink:href="#m97787c51de" x="271.488566" y="182.753201" style="fill: #d16b4e; fill-opacity: 0.88; stroke: #ffffff; stroke-opacity: 0.88"/>
     <use xlink:href="#m97787c51de" x="285.257951" y="201.161134" style="fill: #d16b4e; fill-opacity: 0.88; stroke: #ffffff; stroke-opacity: 0.88"/>
     <use xlink:href="#m97787c51de" x="375.115625" y="186.120473" style="fill: #d16b4e; fill-opacity: 0.88; stroke: #ffffff; stroke-opacity: 0.88"/>
     <use xlink:href="#m97787c51de" x="271.425914" y="164.818987" style="fill: #d16b4e; fill-opacity: 0.88; stroke: #ffffff; stroke-opacity: 0.88"/>
     <use xlink:href="#m97787c51de" x="276.442502" y="180.219531" style="fill: #d16b4e; fill-opacity: 0.88; stroke: #ffffff; stroke-opacity: 0.88"/>
    </g>
   </g>
   <g id="text_21">
    <!-- Test set only | 61 target-valid dates -->
    <g style="fill: #657786" transform="translate(45.289531 42.978676) scale(0.095 -0.095)">
     <defs>
      <path id="DejaVuSans-37" d="M -19 4666 
L 3928 4666 
L 3928 4134 
L 2272 4134 
L 2272 0 
L 1638 0 
L 1638 4134 
L -19 4134 
L -19 4666 
z
" transform="scale(0.015625)"/>
      <path id="DejaVuSans-5f" d="M 1344 4891 
L 1344 -1509 
L 813 -1509 
L 813 4891 
L 1344 4891 
z
" transform="scale(0.015625)"/>
      <path id="DejaVuSans-4a" d="M 2906 1791 
Q 2906 2416 2648 2759 
Q 2391 3103 1925 3103 
Q 1463 3103 1205 2759 
Q 947 2416 947 1791 
Q 947 1169 1205 825 
Q 1463 481 1925 481 
Q 2391 481 2648 825 
Q 2906 1169 2906 1791 
z
M 3481 434 
Q 3481 -459 3084 -895 
Q 2688 -1331 1869 -1331 
Q 1566 -1331 1297 -1286 
Q 1028 -1241 775 -1147 
L 775 -588 
Q 1028 -725 1275 -790 
Q 1522 -856 1778 -856 
Q 2344 -856 2625 -561 
Q 2906 -266 2906 331 
L 2906 616 
Q 2728 306 2450 153 
Q 2172 0 1784 0 
Q 1141 0 747 490 
Q 353 981 353 1791 
Q 353 2603 747 3093 
Q 1141 3584 1784 3584 
Q 2172 3584 2450 3431 
Q 2728 3278 2906 2969 
L 2906 3500 
L 3481 3500 
L 3481 434 
z
" transform="scale(0.015625)"/>
     </defs>
     <use xlink:href="#DejaVuSans-37"/>
     <use xlink:href="#DejaVuSans-48" transform="translate(44.09375 0)"/>
     <use xlink:href="#DejaVuSans-56" transform="translate(105.625 0)"/>
     <use xlink:href="#DejaVuSans-57" transform="translate(157.71875 0)"/>
     <use xlink:href="#DejaVuSans-3" transform="translate(196.921875 0)"/>
     <use xlink:href="#DejaVuSans-56" transform="translate(228.703125 0)"/>
     <use xlink:href="#DejaVuSans-48" transform="translate(280.796875 0)"/>
     <use xlink:href="#DejaVuSans-57" transform="translate(342.328125 0)"/>
     <use xlink:href="#DejaVuSans-3" transform="translate(381.53125 0)"/>
     <use xlink:href="#DejaVuSans-52" transform="translate(413.3125 0)"/>
     <use xlink:href="#DejaVuSans-51" transform="translate(474.5 0)"/>
     <use xlink:href="#DejaVuSans-4f" transform="translate(537.875 0)"/>
     <use xlink:href="#DejaVuSans-5c" transform="translate(565.65625 0)"/>
     <use xlink:href="#DejaVuSans-3" transform="translate(624.84375 0)"/>
     <use xlink:href="#DejaVuSans-5f" transform="translate(656.625 0)"/>
     <use xlink:href="#DejaVuSans-3" transform="translate(690.3125 0)"/>
     <use xlink:href="#DejaVuSans-19" transform="translate(722.09375 0)"/>
     <use xlink:href="#DejaVuSans-14" transform="translate(785.71875 0)"/>
     <use xlink:href="#DejaVuSans-3" transform="translate(849.34375 0)"/>
     <use xlink:href="#DejaVuSans-57" transform="translate(881.125 0)"/>
     <use xlink:href="#DejaVuSans-44" transform="translate(920.328125 0)"/>
     <use xlink:href="#DejaVuSans-55" transform="translate(981.609375 0)"/>
     <use xlink:href="#DejaVuSans-4a" transform="translate(1020.96875 0)"/>
     <use xlink:href="#DejaVuSans-48" transform="translate(1084.453125 0)"/>
     <use xlink:href="#DejaVuSans-57" transform="translate(1145.984375 0)"/>
     <use xlink:href="#DejaVuSans-10" transform="translate(1185.1875 0)"/>
     <use xlink:href="#DejaVuSans-59" transform="translate(1218.578125 0)"/>
     <use xlink:href="#DejaVuSans-44" transform="translate(1277.765625 0)"/>
     <use xlink:href="#DejaVuSans-4f" transform="translate(1339.046875 0)"/>
     <use xlink:href="#DejaVuSans-4c" transform="translate(1366.828125 0)"/>
     <use xlink:href="#DejaVuSans-47" transform="translate(1394.609375 0)"/>
     <use xlink:href="#DejaVuSans-3" transform="translate(1458.09375 0)"/>
     <use xlink:href="#DejaVuSans-47" transform="translate(1489.875 0)"/>
     <use xlink:href="#DejaVuSans-44" transform="translate(1553.359375 0)"/>
     <use xlink:href="#DejaVuSans-57" transform="translate(1614.640625 0)"/>
     <use xlink:href="#DejaVuSans-48" transform="translate(1653.84375 0)"/>
     <use xlink:href="#DejaVuSans-56" transform="translate(1715.375 0)"/>
    </g>
   </g>
   <g id="text_22">
    <!-- Predicted vs Actual Recovery -->
    <g style="fill: #22313f" transform="translate(45.289531 20.117344) scale(0.17 -0.17)">
     <defs>
      <path id="DejaVuSans-Bold-33" d="M 588 4666 
L 2584 4666 
Q 3475 4666 3951 4270 
Q 4428 3875 4428 3144 
Q 4428 2409 3951 2014 
Q 3475 1619 2584 1619 
L 1791 1619 
L 1791 0 
L 588 0 
L 588 4666 
z
M 1791 3794 
L 1791 2491 
L 2456 2491 
Q 2806 2491 2997 2661 
Q 3188 2831 3188 3144 
Q 3188 3456 2997 3625 
Q 2806 3794 2456 3794 
L 1791 3794 
z
" transform="scale(0.015625)"/>
      <path id="DejaVuSans-Bold-55" d="M 3138 2547 
Q 2991 2616 2845 2648 
Q 2700 2681 2553 2681 
Q 2122 2681 1889 2404 
Q 1656 2128 1656 1613 
L 1656 0 
L 538 0 
L 538 3500 
L 1656 3500 
L 1656 2925 
Q 1872 3269 2151 3426 
Q 2431 3584 2822 3584 
Q 2878 3584 2943 3579 
Q 3009 3575 3134 3559 
L 3138 2547 
z
" transform="scale(0.015625)"/>
      <path id="DejaVuSans-Bold-48" d="M 4031 1759 
L 4031 1441 
L 1416 1441 
Q 1456 1047 1700 850 
Q 1944 653 2381 653 
Q 2734 653 3104 758 
Q 3475 863 3866 1075 
L 3866 213 
Q 3469 63 3072 -14 
Q 2675 -91 2278 -91 
Q 1328 -91 801 392 
Q 275 875 275 1747 
Q 275 2603 792 3093 
Q 1309 3584 2216 3584 
Q 3041 3584 3536 3087 
Q 4031 2591 4031 1759 
z
M 2881 2131 
Q 2881 2450 2695 2645 
Q 2509 2841 2209 2841 
Q 1884 2841 1681 2658 
Q 1478 2475 1428 2131 
L 2881 2131 
z
" transform="scale(0.015625)"/>
      <path id="DejaVuSans-Bold-47" d="M 2919 2988 
L 2919 4863 
L 4044 4863 
L 4044 0 
L 2919 0 
L 2919 506 
Q 2688 197 2409 53 
Q 2131 -91 1766 -91 
Q 1119 -91 703 423 
Q 288 938 288 1747 
Q 288 2556 703 3070 
Q 1119 3584 1766 3584 
Q 2128 3584 2408 3439 
Q 2688 3294 2919 2988 
z
M 2181 722 
Q 2541 722 2730 984 
Q 2919 1247 2919 1747 
Q 2919 2247 2730 2509 
Q 2541 2772 2181 2772 
Q 1825 2772 1636 2509 
Q 1447 2247 1447 1747 
Q 1447 1247 1636 984 
Q 1825 722 2181 722 
z
" transform="scale(0.015625)"/>
      <path id="DejaVuSans-Bold-4c" d="M 538 3500 
L 1656 3500 
L 1656 0 
L 538 0 
L 538 3500 
z
M 538 4863 
L 1656 4863 
L 1656 3950 
L 538 3950 
L 538 4863 
z
" transform="scale(0.015625)"/>
      <path id="DejaVuSans-Bold-46" d="M 3366 3391 
L 3366 2478 
Q 3138 2634 2908 2709 
Q 2678 2784 2431 2784 
Q 1963 2784 1702 2511 
Q 1441 2238 1441 1747 
Q 1441 1256 1702 982 
Q 1963 709 2431 709 
Q 2694 709 2930 787 
Q 3166 866 3366 1019 
L 3366 103 
Q 3103 6 2833 -42 
Q 2563 -91 2291 -91 
Q 1344 -91 809 395 
Q 275 881 275 1747 
Q 275 2613 809 3098 
Q 1344 3584 2291 3584 
Q 2566 3584 2833 3536 
Q 3100 3488 3366 3391 
z
" transform="scale(0.015625)"/>
      <path id="DejaVuSans-Bold-57" d="M 1759 4494 
L 1759 3500 
L 2913 3500 
L 2913 2700 
L 1759 2700 
L 1759 1216 
Q 1759 972 1856 886 
Q 1953 800 2241 800 
L 2816 800 
L 2816 0 
L 1856 0 
Q 1194 0 917 276 
Q 641 553 641 1216 
L 641 2700 
L 84 2700 
L 84 3500 
L 641 3500 
L 641 4494 
L 1759 4494 
z
" transform="scale(0.015625)"/>
      <path id="DejaVuSans-Bold-3" transform="scale(0.015625)"/>
      <path id="DejaVuSans-Bold-59" d="M 97 3500 
L 1216 3500 
L 2088 1081 
L 2956 3500 
L 4078 3500 
L 2700 0 
L 1472 0 
L 97 3500 
z
" transform="scale(0.015625)"/>
      <path id="DejaVuSans-Bold-56" d="M 3272 3391 
L 3272 2541 
Q 2913 2691 2578 2766 
Q 2244 2841 1947 2841 
Q 1628 2841 1473 2761 
Q 1319 2681 1319 2516 
Q 1319 2381 1436 2309 
Q 1553 2238 1856 2203 
L 2053 2175 
Q 2913 2066 3209 1816 
Q 3506 1566 3506 1031 
Q 3506 472 3093 190 
Q 2681 -91 1863 -91 
Q 1516 -91 1145 -36 
Q 775 19 384 128 
L 384 978 
Q 719 816 1070 734 
Q 1422 653 1784 653 
Q 2113 653 2278 743 
Q 2444 834 2444 1013 
Q 2444 1163 2330 1236 
Q 2216 1309 1875 1350 
L 1678 1375 
Q 931 1469 631 1722 
Q 331 1975 331 2491 
Q 331 3047 712 3315 
Q 1094 3584 1881 3584 
Q 2191 3584 2531 3537 
Q 2872 3491 3272 3391 
z
" transform="scale(0.015625)"/>
      <path id="DejaVuSans-Bold-24" d="M 3419 850 
L 1538 850 
L 1241 0 
L 31 0 
L 1759 4666 
L 3194 4666 
L 4922 0 
L 3713 0 
L 3419 850 
z
M 1838 1716 
L 3116 1716 
L 2478 3572 
L 1838 1716 
z
" transform="scale(0.015625)"/>
      <path id="DejaVuSans-Bold-58" d="M 500 1363 
L 500 3500 
L 1625 3500 
L 1625 3150 
Q 1625 2866 1622 2436 
Q 1619 2006 1619 1863 
Q 1619 1441 1641 1255 
Q 1663 1069 1716 984 
Q 1784 875 1895 815 
Q 2006 756 2150 756 
Q 2500 756 2700 1025 
Q 2900 1294 2900 1772 
L 2900 3500 
L 4019 3500 
L 4019 0 
L 2900 0 
L 2900 506 
Q 2647 200 2364 54 
Q 2081 -91 1741 -91 
Q 1134 -91 817 281 
Q 500 653 500 1363 
z
" transform="scale(0.015625)"/>
      <path id="DejaVuSans-Bold-44" d="M 2106 1575 
Q 1756 1575 1579 1456 
Q 1403 1338 1403 1106 
Q 1403 894 1545 773 
Q 1688 653 1941 653 
Q 2256 653 2472 879 
Q 2688 1106 2688 1447 
L 2688 1575 
L 2106 1575 
z
M 3816 1997 
L 3816 0 
L 2688 0 
L 2688 519 
Q 2463 200 2181 54 
Q 1900 -91 1497 -91 
Q 953 -91 614 226 
Q 275 544 275 1050 
Q 275 1666 698 1953 
Q 1122 2241 2028 2241 
L 2688 2241 
L 2688 2328 
Q 2688 2594 2478 2717 
Q 2269 2841 1825 2841 
Q 1466 2841 1156 2769 
Q 847 2697 581 2553 
L 581 3406 
Q 941 3494 1303 3539 
Q 1666 3584 2028 3584 
Q 2975 3584 3395 3211 
Q 3816 2838 3816 1997 
z
" transform="scale(0.015625)"/>
      <path id="DejaVuSans-Bold-4f" d="M 538 4863 
L 1656 4863 
L 1656 0 
L 538 0 
L 538 4863 
z
" transform="scale(0.015625)"/>
      <path id="DejaVuSans-Bold-35" d="M 2297 2597 
Q 2675 2597 2839 2737 
Q 3003 2878 3003 3200 
Q 3003 3519 2839 3656 
Q 2675 3794 2297 3794 
L 1791 3794 
L 1791 2597 
L 2297 2597 
z
M 1791 1766 
L 1791 0 
L 588 0 
L 588 4666 
L 2425 4666 
Q 3347 4666 3776 4356 
Q 4206 4047 4206 3378 
Q 4206 2916 3982 2619 
Q 3759 2322 3309 2181 
Q 3556 2125 3751 1926 
Q 3947 1728 4147 1325 
L 4800 0 
L 3519 0 
L 2950 1159 
Q 2778 1509 2601 1637 
Q 2425 1766 2131 1766 
L 1791 1766 
z
" transform="scale(0.015625)"/>
      <path id="DejaVuSans-Bold-52" d="M 2203 2784 
Q 1831 2784 1636 2517 
Q 1441 2250 1441 1747 
Q 1441 1244 1636 976 
Q 1831 709 2203 709 
Q 2569 709 2762 976 
Q 2956 1244 2956 1747 
Q 2956 2250 2762 2517 
Q 2569 2784 2203 2784 
z
M 2203 3584 
Q 3106 3584 3614 3096 
Q 4122 2609 4122 1747 
Q 4122 884 3614 396 
Q 3106 -91 2203 -91 
Q 1297 -91 786 396 
Q 275 884 275 1747 
Q 275 2609 786 3096 
Q 1297 3584 2203 3584 
z
" transform="scale(0.015625)"/>
      <path id="DejaVuSans-Bold-5c" d="M 78 3500 
L 1197 3500 
L 2138 1125 
L 2938 3500 
L 4056 3500 
L 2584 -331 
Q 2363 -916 2067 -1148 
Q 1772 -1381 1288 -1381 
L 641 -1381 
L 641 -647 
L 991 -647 
Q 1275 -647 1404 -556 
Q 1534 -466 1606 -231 
L 1638 -134 
L 78 3500 
z
" transform="scale(0.015625)"/>
     </defs>
     <use xlink:href="#DejaVuSans-Bold-33"/>
     <use xlink:href="#DejaVuSans-Bold-55" transform="translate(73.296875 0)"/>
     <use xlink:href="#DejaVuSans-Bold-48" transform="translate(122.609375 0)"/>
     <use xlink:href="#DejaVuSans-Bold-47" transform="translate(190.4375 0)"/>
     <use xlink:href="#DejaVuSans-Bold-4c" transform="translate(262.015625 0)"/>
     <use xlink:href="#DejaVuSans-Bold-46" transform="translate(296.296875 0)"/>
     <use xlink:href="#DejaVuSans-Bold-57" transform="translate(355.578125 0)"/>
     <use xlink:href="#DejaVuSans-Bold-48" transform="translate(403.375 0)"/>
     <use xlink:href="#DejaVuSans-Bold-47" transform="translate(471.203125 0)"/>
     <use xlink:href="#DejaVuSans-Bold-3" transform="translate(542.78125 0)"/>
     <use xlink:href="#DejaVuSans-Bold-59" transform="translate(577.59375 0)"/>
     <use xlink:href="#DejaVuSans-Bold-56" transform="translate(642.78125 0)"/>
     <use xlink:href="#DejaVuSans-Bold-3" transform="translate(702.296875 0)"/>
     <use xlink:href="#DejaVuSans-Bold-24" transform="translate(737.109375 0)"/>
     <use xlink:href="#DejaVuSans-Bold-46" transform="translate(814.5 0)"/>
     <use xlink:href="#DejaVuSans-Bold-57" transform="translate(873.78125 0)"/>
     <use xlink:href="#DejaVuSans-Bold-58" transform="translate(921.578125 0)"/>
     <use xlink:href="#DejaVuSans-Bold-44" transform="translate(992.765625 0)"/>
     <use xlink:href="#DejaVuSans-Bold-4f" transform="translate(1060.25 0)"/>
     <use xlink:href="#DejaVuSans-Bold-3" transform="translate(1094.53125 0)"/>
     <use xlink:href="#DejaVuSans-Bold-35" transform="translate(1129.34375 0)"/>
     <use xlink:href="#DejaVuSans-Bold-48" transform="translate(1206.34375 0)"/>
     <use xlink:href="#DejaVuSans-Bold-46" transform="translate(1274.171875 0)"/>
     <use xlink:href="#DejaVuSans-Bold-52" transform="translate(1333.453125 0)"/>
     <use xlink:href="#DejaVuSans-Bold-59" transform="translate(1402.15625 0)"/>
     <use xlink:href="#DejaVuSans-Bold-48" transform="translate(1467.34375 0)"/>
     <use xlink:href="#DejaVuSans-Bold-55" transform="translate(1535.171875 0)"/>
     <use xlink:href="#DejaVuSans-Bold-5c" transform="translate(1584.484375 0)"/>
    </g>
   </g>
   <g id="text_23">
    <g id="patch_5">
     <path d="M 59.459838 100.334133 
L 119.662963 100.334133 
Q 124.162963 100.334133 124.162963 95.834133 
L 124.162963 71.830227 
Q 124.162963 67.330227 119.662963 67.330227 
L 59.459838 67.330227 
Q 54.959838 67.330227 54.959838 71.830227 
L 54.959838 95.834133 
Q 54.959838 100.334133 59.459838 100.334133 
z
" style="fill: #ffffff; opacity: 0.96; stroke: #dce3e8; stroke-linejoin: miter"/>
    </g>
    <!-- MAE  8.93 -->
    <g style="fill: #22313f" transform="translate(59.459838 80.428859) scale(0.1 -0.1)">
     <defs>
      <path id="DejaVuSansMono-30" d="M 269 4666 
L 1113 4666 
L 1919 2291 
L 2731 4666 
L 3578 4666 
L 3578 0 
L 2994 0 
L 2994 4122 
L 2163 1663 
L 1684 1663 
L 850 4122 
L 850 0 
L 269 0 
L 269 4666 
z
" transform="scale(0.015625)"/>
      <path id="DejaVuSansMono-24" d="M 1925 4109 
L 1259 1722 
L 2591 1722 
L 1925 4109 
z
M 1544 4666 
L 2309 4666 
L 3738 0 
L 3084 0 
L 2741 1216 
L 1106 1216 
L 769 0 
L 116 0 
L 1544 4666 
z
" transform="scale(0.015625)"/>
      <path id="DejaVuSansMono-28" d="M 616 4666 
L 3384 4666 
L 3384 4134 
L 1247 4134 
L 1247 2753 
L 3291 2753 
L 3291 2222 
L 1247 2222 
L 1247 531 
L 3444 531 
L 3444 0 
L 616 0 
L 616 4666 
z
" transform="scale(0.015625)"/>
      <path id="DejaVuSansMono-3" transform="scale(0.015625)"/>
      <path id="DejaVuSansMono-1b" d="M 1925 2216 
Q 1503 2216 1273 1980 
Q 1044 1744 1044 1313 
Q 1044 881 1276 642 
Q 1509 403 1925 403 
Q 2350 403 2579 639 
Q 2809 875 2809 1313 
Q 2809 1741 2576 1978 
Q 2344 2216 1925 2216 
z
M 1375 2478 
Q 972 2581 745 2862 
Q 519 3144 519 3541 
Q 519 4097 897 4423 
Q 1275 4750 1925 4750 
Q 2578 4750 2956 4423 
Q 3334 4097 3334 3541 
Q 3334 3144 3107 2862 
Q 2881 2581 2478 2478 
Q 2947 2375 3195 2062 
Q 3444 1750 3444 1253 
Q 3444 622 3041 265 
Q 2638 -91 1925 -91 
Q 1213 -91 811 264 
Q 409 619 409 1247 
Q 409 1747 657 2061 
Q 906 2375 1375 2478 
z
M 1147 3481 
Q 1147 3106 1347 2909 
Q 1547 2713 1925 2713 
Q 2306 2713 2506 2909 
Q 2706 3106 2706 3481 
Q 2706 3863 2507 4063 
Q 2309 4263 1925 4263 
Q 1547 4263 1347 4061 
Q 1147 3859 1147 3481 
z
" transform="scale(0.015625)"/>
      <path id="DejaVuSansMono-11" d="M 1528 953 
L 2316 953 
L 2316 0 
L 1528 0 
L 1528 953 
z
" transform="scale(0.015625)"/>
      <path id="DejaVuSansMono-1c" d="M 1863 2069 
Q 2266 2069 2495 2359 
Q 2725 2650 2725 3163 
Q 2725 3675 2495 3965 
Q 2266 4256 1863 4256 
Q 1444 4256 1231 3979 
Q 1019 3703 1019 3163 
Q 1019 2619 1230 2344 
Q 1441 2069 1863 2069 
z
M 738 97 
L 738 678 
Q 934 563 1156 502 
Q 1378 441 1619 441 
Q 2219 441 2526 892 
Q 2834 1344 2834 2222 
Q 2688 1909 2422 1742 
Q 2156 1575 1813 1575 
Q 1138 1575 767 1990 
Q 397 2406 397 3169 
Q 397 3922 776 4336 
Q 1156 4750 1850 4750 
Q 2663 4750 3041 4165 
Q 3419 3581 3419 2328 
Q 3419 1150 2964 529 
Q 2509 -91 1644 -91 
Q 1416 -91 1184 -42 
Q 953 6 738 97 
z
" transform="scale(0.015625)"/>
      <path id="DejaVuSansMono-16" d="M 2425 2497 
Q 2884 2375 3128 2064 
Q 3372 1753 3372 1288 
Q 3372 644 2939 276 
Q 2506 -91 1741 -91 
Q 1419 -91 1084 -31 
Q 750 28 428 141 
L 428 769 
Q 747 603 1056 522 
Q 1366 441 1672 441 
Q 2191 441 2469 675 
Q 2747 909 2747 1350 
Q 2747 1756 2469 1995 
Q 2191 2234 1716 2234 
L 1234 2234 
L 1234 2753 
L 1716 2753 
Q 2150 2753 2394 2943 
Q 2638 3134 2638 3475 
Q 2638 3834 2411 4026 
Q 2184 4219 1766 4219 
Q 1488 4219 1191 4156 
Q 894 4094 569 3969 
L 569 4550 
Q 947 4650 1242 4700 
Q 1538 4750 1766 4750 
Q 2447 4750 2855 4408 
Q 3263 4066 3263 3500 
Q 3263 3116 3048 2859 
Q 2834 2603 2425 2497 
z
" transform="scale(0.015625)"/>
     </defs>
     <use xlink:href="#DejaVuSansMono-30"/>
     <use xlink:href="#DejaVuSansMono-24" transform="translate(60.203125 0)"/>
     <use xlink:href="#DejaVuSansMono-28" transform="translate(120.40625 0)"/>
     <use xlink:href="#DejaVuSansMono-3" transform="translate(180.609375 0)"/>
     <use xlink:href="#DejaVuSansMono-3" transform="translate(240.8125 0)"/>
     <use xlink:href="#DejaVuSansMono-1b" transform="translate(301.015625 0)"/>
     <use xlink:href="#DejaVuSansMono-11" transform="translate(361.21875 0)"/>
     <use xlink:href="#DejaVuSansMono-1c" transform="translate(421.421875 0)"/>
     <use xlink:href="#DejaVuSansMono-16" transform="translate(481.625 0)"/>
    </g>
    <!-- RMSE 11.93 -->
    <g style="fill: #22313f" transform="translate(59.459838 92.430812) scale(0.1 -0.1)">
     <defs>
      <path id="DejaVuSansMono-35" d="M 2375 2203 
Q 2619 2141 2791 1967 
Q 2963 1794 3219 1275 
L 3853 0 
L 3175 0 
L 2619 1178 
Q 2378 1681 2186 1826 
Q 1994 1972 1684 1972 
L 1081 1972 
L 1081 0 
L 447 0 
L 447 4666 
L 1747 4666 
Q 2516 4666 2925 4319 
Q 3334 3972 3334 3316 
Q 3334 2853 3082 2561 
Q 2831 2269 2375 2203 
z
M 1081 4147 
L 1081 2491 
L 1772 2491 
Q 2225 2491 2447 2694 
Q 2669 2897 2669 3316 
Q 2669 3719 2433 3933 
Q 2197 4147 1747 4147 
L 1081 4147 
z
" transform="scale(0.015625)"/>
      <path id="DejaVuSansMono-36" d="M 3163 4506 
L 3163 3866 
Q 2875 4050 2586 4144 
Q 2297 4238 2003 4238 
Q 1556 4238 1297 4030 
Q 1038 3822 1038 3469 
Q 1038 3159 1208 2996 
Q 1378 2834 1844 2725 
L 2175 2650 
Q 2831 2497 3131 2169 
Q 3431 1841 3431 1275 
Q 3431 609 3018 259 
Q 2606 -91 1819 -91 
Q 1491 -91 1159 -20 
Q 828 50 494 191 
L 494 863 
Q 853 634 1173 528 
Q 1494 422 1819 422 
Q 2297 422 2562 636 
Q 2828 850 2828 1234 
Q 2828 1584 2645 1768 
Q 2463 1953 2009 2053 
L 1672 2131 
Q 1022 2278 728 2575 
Q 434 2872 434 3372 
Q 434 3997 854 4373 
Q 1275 4750 1972 4750 
Q 2241 4750 2537 4689 
Q 2834 4628 3163 4506 
z
" transform="scale(0.015625)"/>
      <path id="DejaVuSansMono-14" d="M 844 531 
L 1825 531 
L 1825 4097 
L 769 3859 
L 769 4434 
L 1819 4666 
L 2450 4666 
L 2450 531 
L 3419 531 
L 3419 0 
L 844 0 
L 844 531 
z
" transform="scale(0.015625)"/>
     </defs>
     <use xlink:href="#DejaVuSansMono-35"/>
     <use xlink:href="#DejaVuSansMono-30" transform="translate(60.203125 0)"/>
     <use xlink:href="#DejaVuSansMono-36" transform="translate(120.40625 0)"/>
     <use xlink:href="#DejaVuSansMono-28" transform="translate(180.609375 0)"/>
     <use xlink:href="#DejaVuSansMono-3" transform="translate(240.8125 0)"/>
     <use xlink:href="#DejaVuSansMono-14" transform="translate(301.015625 0)"/>
     <use xlink:href="#DejaVuSansMono-14" transform="translate(361.21875 0)"/>
     <use xlink:href="#DejaVuSansMono-11" transform="translate(421.421875 0)"/>
     <use xlink:href="#DejaVuSansMono-1c" transform="translate(481.625 0)"/>
     <use xlink:href="#DejaVuSansMono-16" transform="translate(541.828125 0)"/>
    </g>
   </g>
   <g id="legend_1">
    <g id="line2d_38">
     <path d="M 252.90625 394.962891 
L 261.90625 394.962891 
L 270.90625 394.962891 
" style="fill: none; stroke-dasharray: 7.5,6; stroke-dashoffset: 0; stroke: #8296a3; stroke-width: 1.5"/>
    </g>
    <g id="text_24">
     <!-- Perfect prediction (y = x) -->
     <g transform="translate(278.10625 398.112891) scale(0.09 -0.09)">
      <defs>
       <path id="DejaVuSans-49" d="M 2375 4863 
L 2375 4384 
L 1825 4384 
Q 1516 4384 1395 4259 
Q 1275 4134 1275 3809 
L 1275 3500 
L 2222 3500 
L 2222 3053 
L 1275 3053 
L 1275 0 
L 697 0 
L 697 3053 
L 147 3053 
L 147 3500 
L 697 3500 
L 697 3744 
Q 697 4328 969 4595 
Q 1241 4863 1831 4863 
L 2375 4863 
z
" transform="scale(0.015625)"/>
       <path id="DejaVuSans-53" d="M 1159 525 
L 1159 -1331 
L 581 -1331 
L 581 3500 
L 1159 3500 
L 1159 2969 
Q 1341 3281 1617 3432 
Q 1894 3584 2278 3584 
Q 2916 3584 3314 3078 
Q 3713 2572 3713 1747 
Q 3713 922 3314 415 
Q 2916 -91 2278 -91 
Q 1894 -91 1617 61 
Q 1341 213 1159 525 
z
M 3116 1747 
Q 3116 2381 2855 2742 
Q 2594 3103 2138 3103 
Q 1681 3103 1420 2742 
Q 1159 2381 1159 1747 
Q 1159 1113 1420 752 
Q 1681 391 2138 391 
Q 2594 391 2855 752 
Q 3116 1113 3116 1747 
z
" transform="scale(0.015625)"/>
       <path id="DejaVuSans-b" d="M 1984 4856 
Q 1566 4138 1362 3434 
Q 1159 2731 1159 2009 
Q 1159 1288 1364 580 
Q 1569 -128 1984 -844 
L 1484 -844 
Q 1016 -109 783 600 
Q 550 1309 550 2009 
Q 550 2706 781 3412 
Q 1013 4119 1484 4856 
L 1984 4856 
z
" transform="scale(0.015625)"/>
       <path id="DejaVuSans-20" d="M 678 2906 
L 4684 2906 
L 4684 2381 
L 678 2381 
L 678 2906 
z
M 678 1631 
L 4684 1631 
L 4684 1100 
L 678 1100 
L 678 1631 
z
" transform="scale(0.015625)"/>
       <path id="DejaVuSans-c" d="M 513 4856 
L 1013 4856 
Q 1481 4119 1714 3412 
Q 1947 2706 1947 2009 
Q 1947 1309 1714 600 
Q 1481 -109 1013 -844 
L 513 -844 
Q 928 -128 1133 580 
Q 1338 1288 1338 2009 
Q 1338 2731 1133 3434 
Q 928 4138 513 4856 
z
" transform="scale(0.015625)"/>
      </defs>
      <use xlink:href="#DejaVuSans-33"/>
      <use xlink:href="#DejaVuSans-48" transform="translate(56.734375 0)"/>
      <use xlink:href="#DejaVuSans-55" transform="translate(118.265625 0)"/>
      <use xlink:href="#DejaVuSans-49" transform="translate(159.375 0)"/>
      <use xlink:href="#DejaVuSans-48" transform="translate(194.578125 0)"/>
      <use xlink:href="#DejaVuSans-46" transform="translate(256.109375 0)"/>
      <use xlink:href="#DejaVuSans-57" transform="translate(311.09375 0)"/>
      <use xlink:href="#DejaVuSans-3" transform="translate(350.296875 0)"/>
      <use xlink:href="#DejaVuSans-53" transform="translate(382.078125 0)"/>
      <use xlink:href="#DejaVuSans-55" transform="translate(445.5625 0)"/>
      <use xlink:href="#DejaVuSans-48" transform="translate(484.46875 0)"/>
      <use xlink:href="#DejaVuSans-47" transform="translate(546 0)"/>
      <use xlink:href="#DejaVuSans-4c" transform="translate(609.484375 0)"/>
      <use xlink:href="#DejaVuSans-46" transform="translate(637.265625 0)"/>
      <use xlink:href="#DejaVuSans-57" transform="translate(692.25 0)"/>
      <use xlink:href="#DejaVuSans-4c" transform="translate(731.453125 0)"/>
      <use xlink:href="#DejaVuSans-52" transform="translate(759.234375 0)"/>
      <use xlink:href="#DejaVuSans-51" transform="translate(820.421875 0)"/>
      <use xlink:href="#DejaVuSans-3" transform="translate(883.796875 0)"/>
      <use xlink:href="#DejaVuSans-b" transform="translate(915.578125 0)"/>
      <use xlink:href="#DejaVuSans-5c" transform="translate(954.59375 0)"/>
      <use xlink:href="#DejaVuSans-3" transform="translate(1013.78125 0)"/>
      <use xlink:href="#DejaVuSans-20" transform="translate(1045.5625 0)"/>
      <use xlink:href="#DejaVuSans-3" transform="translate(1129.359375 0)"/>
      <use xlink:href="#DejaVuSans-5b" transform="translate(1161.140625 0)"/>
      <use xlink:href="#DejaVuSans-c" transform="translate(1220.328125 0)"/>
     </g>
    </g>
   </g>
  </g>
  <g id="text_25">
   <!-- Synthetic demo data - not personal health records -->
   <g style="fill: #657786" transform="translate(288.008734 464.091398) scale(0.083 -0.083)">
    <defs>
     <path id="DejaVuSans-36" d="M 3425 4513 
L 3425 3897 
Q 3066 4069 2747 4153 
Q 2428 4238 2131 4238 
Q 1616 4238 1336 4038 
Q 1056 3838 1056 3469 
Q 1056 3159 1242 3001 
Q 1428 2844 1947 2747 
L 2328 2669 
Q 3034 2534 3370 2195 
Q 3706 1856 3706 1288 
Q 3706 609 3251 259 
Q 2797 -91 1919 -91 
Q 1588 -91 1214 -16 
Q 841 59 441 206 
L 441 856 
Q 825 641 1194 531 
Q 1563 422 1919 422 
Q 2459 422 2753 634 
Q 3047 847 3047 1241 
Q 3047 1584 2836 1778 
Q 2625 1972 2144 2069 
L 1759 2144 
Q 1053 2284 737 2584 
Q 422 2884 422 3419 
Q 422 4038 858 4394 
Q 1294 4750 2059 4750 
Q 2388 4750 2728 4690 
Q 3069 4631 3425 4513 
z
" transform="scale(0.015625)"/>
     <path id="DejaVuSans-4b" d="M 3513 2113 
L 3513 0 
L 2938 0 
L 2938 2094 
Q 2938 2591 2744 2837 
Q 2550 3084 2163 3084 
Q 1697 3084 1428 2787 
Q 1159 2491 1159 1978 
L 1159 0 
L 581 0 
L 581 4863 
L 1159 4863 
L 1159 2956 
Q 1366 3272 1645 3428 
Q 1925 3584 2291 3584 
Q 2894 3584 3203 3211 
Q 3513 2838 3513 2113 
z
" transform="scale(0.015625)"/>
     <path id="DejaVuSans-50" d="M 3328 2828 
Q 3544 3216 3844 3400 
Q 4144 3584 4550 3584 
Q 5097 3584 5394 3201 
Q 5691 2819 5691 2113 
L 5691 0 
L 5113 0 
L 5113 2094 
Q 5113 2597 4934 2840 
Q 4756 3084 4391 3084 
Q 3944 3084 3684 2787 
Q 3425 2491 3425 1978 
L 3425 0 
L 2847 0 
L 2847 2094 
Q 2847 2600 2669 2842 
Q 2491 3084 2119 3084 
Q 1678 3084 1418 2786 
Q 1159 2488 1159 1978 
L 1159 0 
L 581 0 
L 581 3500 
L 1159 3500 
L 1159 2956 
Q 1356 3278 1631 3431 
Q 1906 3584 2284 3584 
Q 2666 3584 2933 3390 
Q 3200 3197 3328 2828 
z
" transform="scale(0.015625)"/>
    </defs>
    <use xlink:href="#DejaVuSans-36"/>
    <use xlink:href="#DejaVuSans-5c" transform="translate(63.484375 0)"/>
    <use xlink:href="#DejaVuSans-51" transform="translate(122.671875 0)"/>
    <use xlink:href="#DejaVuSans-57" transform="translate(186.046875 0)"/>
    <use xlink:href="#DejaVuSans-4b" transform="translate(225.25 0)"/>
    <use xlink:href="#DejaVuSans-48" transform="translate(288.625 0)"/>
    <use xlink:href="#DejaVuSans-57" transform="translate(350.15625 0)"/>
    <use xlink:href="#DejaVuSans-4c" transform="translate(389.359375 0)"/>
    <use xlink:href="#DejaVuSans-46" transform="translate(417.140625 0)"/>
    <use xlink:href="#DejaVuSans-3" transform="translate(472.125 0)"/>
    <use xlink:href="#DejaVuSans-47" transform="translate(503.90625 0)"/>
    <use xlink:href="#DejaVuSans-48" transform="translate(567.390625 0)"/>
    <use xlink:href="#DejaVuSans-50" transform="translate(628.921875 0)"/>
    <use xlink:href="#DejaVuSans-52" transform="translate(726.328125 0)"/>
    <use xlink:href="#DejaVuSans-3" transform="translate(787.515625 0)"/>
    <use xlink:href="#DejaVuSans-47" transform="translate(819.296875 0)"/>
    <use xlink:href="#DejaVuSans-44" transform="translate(882.78125 0)"/>
    <use xlink:href="#DejaVuSans-57" transform="translate(944.0625 0)"/>
    <use xlink:href="#DejaVuSans-44" transform="translate(983.265625 0)"/>
    <use xlink:href="#DejaVuSans-3" transform="translate(1044.546875 0)"/>
    <use xlink:href="#DejaVuSans-10" transform="translate(1076.328125 0)"/>
    <use xlink:href="#DejaVuSans-3" transform="translate(1112.40625 0)"/>
    <use xlink:href="#DejaVuSans-51" transform="translate(1144.1875 0)"/>
    <use xlink:href="#DejaVuSans-52" transform="translate(1207.5625 0)"/>
    <use xlink:href="#DejaVuSans-57" transform="translate(1268.75 0)"/>
    <use xlink:href="#DejaVuSans-3" transform="translate(1307.953125 0)"/>
    <use xlink:href="#DejaVuSans-53" transform="translate(1339.734375 0)"/>
    <use xlink:href="#DejaVuSans-48" transform="translate(1403.21875 0)"/>
    <use xlink:href="#DejaVuSans-55" transform="translate(1464.75 0)"/>
    <use xlink:href="#DejaVuSans-56" transform="translate(1505.859375 0)"/>
    <use xlink:href="#DejaVuSans-52" transform="translate(1557.953125 0)"/>
    <use xlink:href="#DejaVuSans-51" transform="translate(1619.140625 0)"/>
    <use xlink:href="#DejaVuSans-44" transform="translate(1682.515625 0)"/>
    <use xlink:href="#DejaVuSans-4f" transform="translate(1743.796875 0)"/>
    <use xlink:href="#DejaVuSans-3" transform="translate(1771.578125 0)"/>
    <use xlink:href="#DejaVuSans-4b" transform="translate(1803.359375 0)"/>
    <use xlink:href="#DejaVuSans-48" transform="translate(1866.734375 0)"/>
    <use xlink:href="#DejaVuSans-44" transform="translate(1928.265625 0)"/>
    <use xlink:href="#DejaVuSans-4f" transform="translate(1989.546875 0)"/>
    <use xlink:href="#DejaVuSans-57" transform="translate(2017.328125 0)"/>
    <use xlink:href="#DejaVuSans-4b" transform="translate(2056.53125 0)"/>
    <use xlink:href="#DejaVuSans-3" transform="translate(2119.90625 0)"/>
    <use xlink:href="#DejaVuSans-55" transform="translate(2151.6875 0)"/>
    <use xlink:href="#DejaVuSans-48" transform="translate(2190.59375 0)"/>
    <use xlink:href="#DejaVuSans-46" transform="translate(2252.125 0)"/>
    <use xlink:href="#DejaVuSans-52" transform="translate(2307.109375 0)"/>
    <use xlink:href="#DejaVuSans-55" transform="translate(2368.296875 0)"/>
    <use xlink:href="#DejaVuSans-47" transform="translate(2407.65625 0)"/>
    <use xlink:href="#DejaVuSans-56" transform="translate(2471.140625 0)"/>
   </g>
  </g>
 </g>
 <defs>
  <clipPath id="p3355c86e6b">
   <rect x="45.289531" y="54.117344" width="354.257656" height="354.257656"/>
  </clipPath>
 </defs>
</svg>
