<?xml version="1.0" encoding="utf-8" standalone="no"?>
<!DOCTYPE svg PUBLIC "-//W3C//DTD SVG 1.1//EN"
  "http://www.w3.org/Graphics/SVG/1.1/DTD/svg11.dtd">
<svg xmlns:xlink="http://www.w3.org/1999/xlink" width="902.447891pt" height="439.733344pt" viewBox="0 0 902.447891 439.733344" xmlns="http://www.w3.org/2000/svg" version="1.1">
 <metadata>
  <rdf:RDF xmlns:dc="http://purl.org/dc/elements/1.1/" xmlns:cc="http://creativecommons.org/ns#" xmlns:rdf="http://www.w3.org/1999/02/22-rdf-syntax-ns#">
   <cc:Work>
    <dc:type rdf:resource="http://purl.org/dc/dcmitype/StillImage"/>
    <dc:date>2026-06-16T16:45:17.824760</dc:date>
    <dc:format>image/svg+xml</dc:format>
    <dc:creator>
     <cc:Agent>
      <dc:title>Matplotlib v3.11.0, https://matplotlib.org/</dc:title>
     </cc:Agent>
    </dc:creator>
   </cc:Work>
  </rdf:RDF>
 </metadata>
 <defs>
  <style type="text/css">*{stroke-linejoin: round; stroke-linecap: butt}</style>
 </defs>
 <g id="figure_1">
  <g id="patch_1">
   <path d="M 0 439.733344 
L 902.447891 439.733344 
L 902.447891 0 
L 0 0 
z
" style="fill: #fafbfc"/>
  </g>
  <g id="axes_1">
   <g id="patch_2">
    <path d="M 53.250234 395.937344 
L 870.047891 395.937344 
L 870.047891 54.117344 
L 53.250234 54.117344 
z
" style="fill: #ffffff"/>
   </g>
   <g id="line2d_1">
    <path d="M 53.250234 225.027344 
L 870.047891 225.027344 
" clip-path="url(#p53d52e0f4a)" style="fill: none; stroke-dasharray: 4.8,3.6; stroke-dashoffset: 0; stroke: #22313f; stroke-opacity: 0.8; stroke-width: 1.2"/>
   </g>
   <g id="matplotlib.axis_1">
    <g id="xtick_1">
     <g id="line2d_2"/>
     <g id="text_1">
      <!-- Nov 01 -->
      <g style="fill: #657786" transform="translate(49.598999 409.155117) scale(0.095 -0.095)">
       <defs>
        <path id="DejaVuSans-31" d="M 628 4666 
L 1478 4666 
L 3547 763 
L 3547 4666 
L 4159 4666 
L 4159 0 
L 3309 0 
L 1241 3903 
L 1241 0 
L 628 0 
L 628 4666 
z
" transform="scale(0.015625)"/>
        <path id="DejaVuSans-52" d="M 1959 3097 
Q 1497 3097 1228 2736 
Q 959 2375 959 1747 
Q 959 1119 1226 758 
Q 1494 397 1959 397 
Q 2419 397 2687 759 
Q 2956 1122 2956 1747 
Q 2956 2369 2687 2733 
Q 2419 3097 1959 3097 
z
M 1959 3584 
Q 2709 3584 3137 3096 
Q 3566 2609 3566 1747 
Q 3566 888 3137 398 
Q 2709 -91 1959 -91 
Q 1206 -91 779 398 
Q 353 888 353 1747 
Q 353 2609 779 3096 
Q 1206 3584 1959 3584 
z
" transform="scale(0.015625)"/>
        <path id="DejaVuSans-59" d="M 191 3500 
L 800 3500 
L 1894 563 
L 2988 3500 
L 3597 3500 
L 2284 0 
L 1503 0 
L 191 3500 
z
" transform="scale(0.015625)"/>
        <path id="DejaVuSans-3" transform="scale(0.015625)"/>
        <path id="DejaVuSans-13" d="M 2034 4250 
Q 1547 4250 1301 3770 
Q 1056 3291 1056 2328 
Q 1056 1369 1301 889 
Q 1547 409 2034 409 
Q 2525 409 2770 889 
Q 3016 1369 3016 2328 
Q 3016 3291 2770 3770 
Q 2525 4250 2034 4250 
z
M 2034 4750 
Q 2819 4750 3233 4129 
Q 3647 3509 3647 2328 
Q 3647 1150 3233 529 
Q 2819 -91 2034 -91 
Q 1250 -91 836 529 
Q 422 1150 422 2328 
Q 422 3509 836 4129 
Q 1250 4750 2034 4750 
z
" transform="scale(0.015625)"/>
        <path id="DejaVuSans-14" d="M 794 531 
L 1825 531 
L 1825 4091 
L 703 3866 
L 703 4441 
L 1819 4666 
L 2450 4666 
L 2450 531 
L 3481 531 
L 3481 0 
L 794 0 
L 794 531 
z
" transform="scale(0.015625)"/>
       </defs>
       <use xlink:href="#DejaVuSans-31"/>
       <use xlink:href="#DejaVuSans-52" transform="translate(74.8125 0)"/>
       <use xlink:href="#DejaVuSans-59" transform="translate(136 0)"/>
       <use xlink:href="#DejaVuSans-3" transform="translate(195.1875 0)"/>
       <use xlink:href="#DejaVuSans-13" transform="translate(226.96875 0)"/>
       <use xlink:href="#DejaVuSans-14" transform="translate(290.59375 0)"/>
      </g>
     </g>
    </g>
    <g id="xtick_2">
     <g id="line2d_3"/>
     <g id="text_2">
      <!-- Nov 15 -->
      <g style="fill: #657786" transform="translate(234.03718 409.155117) scale(0.095 -0.095)">
       <defs>
        <path id="DejaVuSans-18" d="M 691 4666 
L 3169 4666 
L 3169 4134 
L 1269 4134 
L 1269 2991 
Q 1406 3038 1543 3061 
Q 1681 3084 1819 3084 
Q 2600 3084 3056 2656 
Q 3513 2228 3513 1497 
Q 3513 744 3044 326 
Q 2575 -91 1722 -91 
Q 1428 -91 1123 -41 
Q 819 9 494 109 
L 494 744 
Q 775 591 1075 516 
Q 1375 441 1709 441 
Q 2250 441 2565 725 
Q 2881 1009 2881 1497 
Q 2881 1984 2565 2268 
Q 2250 2553 1709 2553 
Q 1456 2553 1204 2497 
Q 953 2441 691 2322 
L 691 4666 
z
" transform="scale(0.015625)"/>
       </defs>
       <use xlink:href="#DejaVuSans-31"/>
       <use xlink:href="#DejaVuSans-52" transform="translate(74.8125 0)"/>
       <use xlink:href="#DejaVuSans-59" transform="translate(136 0)"/>
       <use xlink:href="#DejaVuSans-3" transform="translate(195.1875 0)"/>
       <use xlink:href="#DejaVuSans-14" transform="translate(226.96875 0)"/>
       <use xlink:href="#DejaVuSans-18" transform="translate(290.59375 0)"/>
      </g>
     </g>
    </g>
    <g id="xtick_3">
     <g id="line2d_4"/>
     <g id="text_3">
      <!-- Dec 01 -->
      <g style="fill: #657786" transform="translate(444.903086 409.155117) scale(0.095 -0.095)">
       <defs>
        <path id="DejaVuSans-27" d="M 1259 4147 
L 1259 519 
L 2022 519 
Q 2988 519 3436 956 
Q 3884 1394 3884 2338 
Q 3884 3275 3436 3711 
Q 2988 4147 2022 4147 
L 1259 4147 
z
M 628 4666 
L 1925 4666 
Q 3281 4666 3915 4102 
Q 4550 3538 4550 2338 
Q 4550 1131 3912 565 
Q 3275 0 1925 0 
L 628 0 
L 628 4666 
z
" transform="scale(0.015625)"/>
        <path id="DejaVuSans-48" d="M 3597 1894 
L 3597 1613 
L 953 1613 
Q 991 1019 1311 708 
Q 1631 397 2203 397 
Q 2534 397 2845 478 
Q 3156 559 3463 722 
L 3463 178 
Q 3153 47 2828 -22 
Q 2503 -91 2169 -91 
Q 1331 -91 842 396 
Q 353 884 353 1716 
Q 353 2575 817 3079 
Q 1281 3584 2069 3584 
Q 2775 3584 3186 3129 
Q 3597 2675 3597 1894 
z
M 3022 2063 
Q 3016 2534 2758 2815 
Q 2500 3097 2075 3097 
Q 1594 3097 1305 2825 
Q 1016 2553 972 2059 
L 3022 2063 
z
" transform="scale(0.015625)"/>
        <path id="DejaVuSans-46" d="M 3122 3366 
L 3122 2828 
Q 2878 2963 2633 3030 
Q 2388 3097 2138 3097 
Q 1578 3097 1268 2742 
Q 959 2388 959 1747 
Q 959 1106 1268 751 
Q 1578 397 2138 397 
Q 2388 397 2633 464 
Q 2878 531 3122 666 
L 3122 134 
Q 2881 22 2623 -34 
Q 2366 -91 2075 -91 
Q 1284 -91 818 406 
Q 353 903 353 1747 
Q 353 2603 823 3093 
Q 1294 3584 2113 3584 
Q 2378 3584 2631 3529 
Q 2884 3475 3122 3366 
z
" transform="scale(0.015625)"/>
       </defs>
       <use xlink:href="#DejaVuSans-27"/>
       <use xlink:href="#DejaVuSans-48" transform="translate(77 0)"/>
       <use xlink:href="#DejaVuSans-46" transform="translate(138.53125 0)"/>
       <use xlink:href="#DejaVuSans-3" transform="translate(193.515625 0)"/>
       <use xlink:href="#DejaVuSans-13" transform="translate(225.296875 0)"/>
       <use xlink:href="#DejaVuSans-14" transform="translate(288.921875 0)"/>
      </g>
     </g>
    </g>
    <g id="xtick_4">
     <g id="line2d_5"/>
     <g id="text_4">
      <!-- Dec 15 -->
      <g style="fill: #657786" transform="translate(629.341266 409.155117) scale(0.095 -0.095)">
       <use xlink:href="#DejaVuSans-27"/>
       <use xlink:href="#DejaVuSans-48" transform="translate(77 0)"/>
       <use xlink:href="#DejaVuSans-46" transform="translate(138.53125 0)"/>
       <use xlink:href="#DejaVuSans-3" transform="translate(193.515625 0)"/>
       <use xlink:href="#DejaVuSans-14" transform="translate(225.296875 0)"/>
       <use xlink:href="#DejaVuSans-18" transform="translate(288.921875 0)"/>
      </g>
     </g>
    </g>
    <g id="xtick_5">
     <g id="line2d_6"/>
     <g id="text_5">
      <!-- Jan 01 -->
      <g style="fill: #657786" transform="translate(855.171484 409.155117) scale(0.095 -0.095)">
       <defs>
        <path id="DejaVuSans-2d" d="M 628 4666 
L 1259 4666 
L 1259 325 
Q 1259 -519 939 -900 
Q 619 -1281 -91 -1281 
L -331 -1281 
L -331 -750 
L -134 -750 
Q 284 -750 456 -515 
Q 628 -281 628 325 
L 628 4666 
z
" transform="scale(0.015625)"/>
        <path id="DejaVuSans-44" d="M 2194 1759 
Q 1497 1759 1228 1600 
Q 959 1441 959 1056 
Q 959 750 1161 570 
Q 1363 391 1709 391 
Q 2188 391 2477 730 
Q 2766 1069 2766 1631 
L 2766 1759 
L 2194 1759 
z
M 3341 1997 
L 3341 0 
L 2766 0 
L 2766 531 
Q 2569 213 2275 61 
Q 1981 -91 1556 -91 
Q 1019 -91 701 211 
Q 384 513 384 1019 
Q 384 1609 779 1909 
Q 1175 2209 1959 2209 
L 2766 2209 
L 2766 2266 
Q 2766 2663 2505 2880 
Q 2244 3097 1772 3097 
Q 1472 3097 1187 3025 
Q 903 2953 641 2809 
L 641 3341 
Q 956 3463 1253 3523 
Q 1550 3584 1831 3584 
Q 2591 3584 2966 3190 
Q 3341 2797 3341 1997 
z
" transform="scale(0.015625)"/>
        <path id="DejaVuSans-51" d="M 3513 2113 
L 3513 0 
L 2938 0 
L 2938 2094 
Q 2938 2591 2744 2837 
Q 2550 3084 2163 3084 
Q 1697 3084 1428 2787 
Q 1159 2491 1159 1978 
L 1159 0 
L 581 0 
L 581 3500 
L 1159 3500 
L 1159 2956 
Q 1366 3272 1645 3428 
Q 1925 3584 2291 3584 
Q 2894 3584 3203 3211 
Q 3513 2838 3513 2113 
z
" transform="scale(0.015625)"/>
       </defs>
       <use xlink:href="#DejaVuSans-2d"/>
       <use xlink:href="#DejaVuSans-44" transform="translate(29.5 0)"/>
       <use xlink:href="#DejaVuSans-51" transform="translate(90.78125 0)"/>
       <use xlink:href="#DejaVuSans-3" transform="translate(154.15625 0)"/>
       <use xlink:href="#DejaVuSans-13" transform="translate(185.9375 0)"/>
       <use xlink:href="#DejaVuSans-14" transform="translate(249.5625 0)"/>
      </g>
     </g>
    </g>
   </g>
   <g id="matplotlib.axis_2">
    <g id="ytick_1">
     <g id="line2d_7">
      <path d="M 53.250234 369.555106 
L 870.047891 369.555106 
" clip-path="url(#p53d52e0f4a)" style="fill: none; stroke: #dce3e8; stroke-opacity: 0.55; stroke-width: 0.7; stroke-linecap: square"/>
     </g>
     <g id="line2d_8"/>
     <g id="text_6">
      <!-- −40 -->
      <g style="fill: #657786" transform="translate(27.200781 373.163992) scale(0.095 -0.095)">
       <defs>
        <path id="DejaVuSans-c9c" d="M 678 2272 
L 4684 2272 
L 4684 1741 
L 678 1741 
L 678 2272 
z
" transform="scale(0.015625)"/>
        <path id="DejaVuSans-17" d="M 2419 4116 
L 825 1625 
L 2419 1625 
L 2419 4116 
z
M 2253 4666 
L 3047 4666 
L 3047 1625 
L 3713 1625 
L 3713 1100 
L 3047 1100 
L 3047 0 
L 2419 0 
L 2419 1100 
L 313 1100 
L 313 1709 
L 2253 4666 
z
" transform="scale(0.015625)"/>
       </defs>
       <use xlink:href="#DejaVuSans-c9c"/>
       <use xlink:href="#DejaVuSans-17" transform="translate(83.796875 0)"/>
       <use xlink:href="#DejaVuSans-13" transform="translate(147.421875 0)"/>
      </g>
     </g>
    </g>
    <g id="ytick_2">
     <g id="line2d_9">
      <path d="M 53.250234 297.291225 
L 870.047891 297.291225 
" clip-path="url(#p53d52e0f4a)" style="fill: none; stroke: #dce3e8; stroke-opacity: 0.55; stroke-width: 0.7; stroke-linecap: square"/>
     </g>
     <g id="line2d_10"/>
     <g id="text_7">
      <!-- −20 -->
      <g style="fill: #657786" transform="translate(27.200781 300.900111) scale(0.095 -0.095)">
       <defs>
        <path id="DejaVuSans-15" d="M 1228 531 
L 3431 531 
L 3431 0 
L 469 0 
L 469 531 
Q 828 903 1448 1529 
Q 2069 2156 2228 2338 
Q 2531 2678 2651 2914 
Q 2772 3150 2772 3378 
Q 2772 3750 2511 3984 
Q 2250 4219 1831 4219 
Q 1534 4219 1204 4116 
Q 875 4013 500 3803 
L 500 4441 
Q 881 4594 1212 4672 
Q 1544 4750 1819 4750 
Q 2544 4750 2975 4387 
Q 3406 4025 3406 3419 
Q 3406 3131 3298 2873 
Q 3191 2616 2906 2266 
Q 2828 2175 2409 1742 
Q 1991 1309 1228 531 
z
" transform="scale(0.015625)"/>
       </defs>
       <use xlink:href="#DejaVuSans-c9c"/>
       <use xlink:href="#DejaVuSans-15" transform="translate(83.796875 0)"/>
       <use xlink:href="#DejaVuSans-13" transform="translate(147.421875 0)"/>
      </g>
     </g>
    </g>
    <g id="ytick_3">
     <g id="line2d_11">
      <path d="M 53.250234 225.027344 
L 870.047891 225.027344 
" clip-path="url(#p53d52e0f4a)" style="fill: none; stroke: #dce3e8; stroke-opacity: 0.55; stroke-width: 0.7; stroke-linecap: square"/>
     </g>
     <g id="line2d_12"/>
     <g id="text_8">
      <!-- 0 -->
      <g style="fill: #657786" transform="translate(41.205859 228.63623) scale(0.095 -0.095)">
       <use xlink:href="#DejaVuSans-13"/>
      </g>
     </g>
    </g>
    <g id="ytick_4">
     <g id="line2d_13">
      <path d="M 53.250234 152.763463 
L 870.047891 152.763463 
" clip-path="url(#p53d52e0f4a)" style="fill: none; stroke: #dce3e8; stroke-opacity: 0.55; stroke-width: 0.7; stroke-linecap: square"/>
     </g>
     <g id="line2d_14"/>
     <g id="text_9">
      <!-- 20 -->
      <g style="fill: #657786" transform="translate(35.161484 156.372349) scale(0.095 -0.095)">
       <use xlink:href="#DejaVuSans-15"/>
       <use xlink:href="#DejaVuSans-13" transform="translate(63.625 0)"/>
      </g>
     </g>
    </g>
    <g id="ytick_5">
     <g id="line2d_15">
      <path d="M 53.250234 80.499582 
L 870.047891 80.499582 
" clip-path="url(#p53d52e0f4a)" style="fill: none; stroke: #dce3e8; stroke-opacity: 0.55; stroke-width: 0.7; stroke-linecap: square"/>
     </g>
     <g id="line2d_16"/>
     <g id="text_10">
      <!-- 40 -->
      <g style="fill: #657786" transform="translate(35.161484 84.108468) scale(0.095 -0.095)">
       <use xlink:href="#DejaVuSans-17"/>
       <use xlink:href="#DejaVuSans-13" transform="translate(63.625 0)"/>
      </g>
     </g>
    </g>
    <g id="text_11">
     <!-- Residual: actual - predicted -->
     <g style="fill: #22313f" transform="translate(14.798438 293.514062) rotate(-90) scale(0.1 -0.1)">
      <defs>
       <path id="DejaVuSans-35" d="M 2841 2188 
Q 3044 2119 3236 1894 
Q 3428 1669 3622 1275 
L 4263 0 
L 3584 0 
L 2988 1197 
Q 2756 1666 2539 1819 
Q 2322 1972 1947 1972 
L 1259 1972 
L 1259 0 
L 628 0 
L 628 4666 
L 2053 4666 
Q 2853 4666 3247 4331 
Q 3641 3997 3641 3322 
Q 3641 2881 3436 2590 
Q 3231 2300 2841 2188 
z
M 1259 4147 
L 1259 2491 
L 2053 2491 
Q 2509 2491 2742 2702 
Q 2975 2913 2975 3322 
Q 2975 3731 2742 3939 
Q 2509 4147 2053 4147 
L 1259 4147 
z
" transform="scale(0.015625)"/>
       <path id="DejaVuSans-56" d="M 2834 3397 
L 2834 2853 
Q 2591 2978 2328 3040 
Q 2066 3103 1784 3103 
Q 1356 3103 1142 2972 
Q 928 2841 928 2578 
Q 928 2378 1081 2264 
Q 1234 2150 1697 2047 
L 1894 2003 
Q 2506 1872 2764 1633 
Q 3022 1394 3022 966 
Q 3022 478 2636 193 
Q 2250 -91 1575 -91 
Q 1294 -91 989 -36 
Q 684 19 347 128 
L 347 722 
Q 666 556 975 473 
Q 1284 391 1588 391 
Q 1994 391 2212 530 
Q 2431 669 2431 922 
Q 2431 1156 2273 1281 
Q 2116 1406 1581 1522 
L 1381 1569 
Q 847 1681 609 1914 
Q 372 2147 372 2553 
Q 372 3047 722 3315 
Q 1072 3584 1716 3584 
Q 2034 3584 2315 3537 
Q 2597 3491 2834 3397 
z
" transform="scale(0.015625)"/>
       <path id="DejaVuSans-4c" d="M 603 3500 
L 1178 3500 
L 1178 0 
L 603 0 
L 603 3500 
z
M 603 4863 
L 1178 4863 
L 1178 4134 
L 603 4134 
L 603 4863 
z
" transform="scale(0.015625)"/>
       <path id="DejaVuSans-47" d="M 2906 2969 
L 2906 4863 
L 3481 4863 
L 3481 0 
L 2906 0 
L 2906 525 
Q 2725 213 2448 61 
Q 2172 -91 1784 -91 
Q 1150 -91 751 415 
Q 353 922 353 1747 
Q 353 2572 751 3078 
Q 1150 3584 1784 3584 
Q 2172 3584 2448 3432 
Q 2725 3281 2906 2969 
z
M 947 1747 
Q 947 1113 1208 752 
Q 1469 391 1925 391 
Q 2381 391 2643 752 
Q 2906 1113 2906 1747 
Q 2906 2381 2643 2742 
Q 2381 3103 1925 3103 
Q 1469 3103 1208 2742 
Q 947 2381 947 1747 
z
" transform="scale(0.015625)"/>
       <path id="DejaVuSans-58" d="M 544 1381 
L 544 3500 
L 1119 3500 
L 1119 1403 
Q 1119 906 1312 657 
Q 1506 409 1894 409 
Q 2359 409 2629 706 
Q 2900 1003 2900 1516 
L 2900 3500 
L 3475 3500 
L 3475 0 
L 2900 0 
L 2900 538 
Q 2691 219 2414 64 
Q 2138 -91 1772 -91 
Q 1169 -91 856 284 
Q 544 659 544 1381 
z
M 1991 3584 
L 1991 3584 
z
" transform="scale(0.015625)"/>
       <path id="DejaVuSans-4f" d="M 603 4863 
L 1178 4863 
L 1178 0 
L 603 0 
L 603 4863 
z
" transform="scale(0.015625)"/>
       <path id="DejaVuSans-1d" d="M 750 794 
L 1409 794 
L 1409 0 
L 750 0 
L 750 794 
z
M 750 3309 
L 1409 3309 
L 1409 2516 
L 750 2516 
L 750 3309 
z
" transform="scale(0.015625)"/>
       <path id="DejaVuSans-57" d="M 1172 4494 
L 1172 3500 
L 2356 3500 
L 2356 3053 
L 1172 3053 
L 1172 1153 
Q 1172 725 1289 603 
Q 1406 481 1766 481 
L 2356 481 
L 2356 0 
L 1766 0 
Q 1100 0 847 248 
Q 594 497 594 1153 
L 594 3053 
L 172 3053 
L 172 3500 
L 594 3500 
L 594 4494 
L 1172 4494 
z
" transform="scale(0.015625)"/>
       <path id="DejaVuSans-10" d="M 313 2009 
L 1997 2009 
L 1997 1497 
L 313 1497 
L 313 2009 
z
" transform="scale(0.015625)"/>
       <path id="DejaVuSans-53" d="M 1159 525 
L 1159 -1331 
L 581 -1331 
L 581 3500 
L 1159 3500 
L 1159 2969 
Q 1341 3281 1617 3432 
Q 1894 3584 2278 3584 
Q 2916 3584 3314 3078 
Q 3713 2572 3713 1747 
Q 3713 922 3314 415 
Q 2916 -91 2278 -91 
Q 1894 -91 1617 61 
Q 1341 213 1159 525 
z
M 3116 1747 
Q 3116 2381 2855 2742 
Q 2594 3103 2138 3103 
Q 1681 3103 1420 2742 
Q 1159 2381 1159 1747 
Q 1159 1113 1420 752 
Q 1681 391 2138 391 
Q 2594 391 2855 752 
Q 3116 1113 3116 1747 
z
" transform="scale(0.015625)"/>
       <path id="DejaVuSans-55" d="M 2631 2963 
Q 2534 3019 2420 3045 
Q 2306 3072 2169 3072 
Q 1681 3072 1420 2755 
Q 1159 2438 1159 1844 
L 1159 0 
L 581 0 
L 581 3500 
L 1159 3500 
L 1159 2956 
Q 1341 3275 1631 3429 
Q 1922 3584 2338 3584 
Q 2397 3584 2469 3576 
Q 2541 3569 2628 3553 
L 2631 2963 
z
" transform="scale(0.015625)"/>
      </defs>
      <use xlink:href="#DejaVuSans-35"/>
      <use xlink:href="#DejaVuSans-48" transform="translate(65 0)"/>
      <use xlink:href="#DejaVuSans-56" transform="translate(126.53125 0)"/>
      <use xlink:href="#DejaVuSans-4c" transform="translate(178.625 0)"/>
      <use xlink:href="#DejaVuSans-47" transform="translate(206.40625 0)"/>
      <use xlink:href="#DejaVuSans-58" transform="translate(269.890625 0)"/>
      <use xlink:href="#DejaVuSans-44" transform="translate(333.265625 0)"/>
      <use xlink:href="#DejaVuSans-4f" transform="translate(394.546875 0)"/>
      <use xlink:href="#DejaVuSans-1d" transform="translate(422.328125 0)"/>
      <use xlink:href="#DejaVuSans-3" transform="translate(456.015625 0)"/>
      <use xlink:href="#DejaVuSans-44" transform="translate(487.796875 0)"/>
      <use xlink:href="#DejaVuSans-46" transform="translate(549.078125 0)"/>
      <use xlink:href="#DejaVuSans-57" transform="translate(604.0625 0)"/>
      <use xlink:href="#DejaVuSans-58" transform="translate(643.265625 0)"/>
      <use xlink:href="#DejaVuSans-44" transform="translate(706.640625 0)"/>
      <use xlink:href="#DejaVuSans-4f" transform="translate(767.921875 0)"/>
      <use xlink:href="#DejaVuSans-3" transform="translate(795.703125 0)"/>
      <use xlink:href="#DejaVuSans-10" transform="translate(827.484375 0)"/>
      <use xlink:href="#DejaVuSans-3" transform="translate(863.5625 0)"/>
      <use xlink:href="#DejaVuSans-53" transform="translate(895.34375 0)"/>
      <use xlink:href="#DejaVuSans-55" transform="translate(958.828125 0)"/>
      <use xlink:href="#DejaVuSans-48" transform="translate(997.734375 0)"/>
      <use xlink:href="#DejaVuSans-47" transform="translate(1059.265625 0)"/>
      <use xlink:href="#DejaVuSans-4c" transform="translate(1122.75 0)"/>
      <use xlink:href="#DejaVuSans-46" transform="translate(1150.53125 0)"/>
      <use xlink:href="#DejaVuSans-57" transform="translate(1205.515625 0)"/>
      <use xlink:href="#DejaVuSans-48" transform="translate(1244.71875 0)"/>
      <use xlink:href="#DejaVuSans-47" transform="translate(1306.25 0)"/>
     </g>
    </g>
   </g>
   <g id="LineCollection_1">
    <path d="M 66.42439 225.027344 
L 66.42439 202.051029 
" clip-path="url(#p53d52e0f4a)" style="fill: none; stroke: #4d8060; stroke-opacity: 0.55; stroke-width: 1.2"/>
    <path d="M 79.598546 225.027344 
L 79.598546 219.120797 
" clip-path="url(#p53d52e0f4a)" style="fill: none; stroke: #4d8060; stroke-opacity: 0.55; stroke-width: 1.2"/>
    <path d="M 92.772702 225.027344 
L 92.772702 196.089886 
" clip-path="url(#p53d52e0f4a)" style="fill: none; stroke: #4d8060; stroke-opacity: 0.55; stroke-width: 1.2"/>
    <path d="M 105.946857 225.027344 
L 105.946857 199.335789 
" clip-path="url(#p53d52e0f4a)" style="fill: none; stroke: #4d8060; stroke-opacity: 0.55; stroke-width: 1.2"/>
    <path d="M 119.121013 225.027344 
L 119.121013 227.566875 
" clip-path="url(#p53d52e0f4a)" style="fill: none; stroke: #a85a60; stroke-opacity: 0.55; stroke-width: 1.2"/>
    <path d="M 132.295169 225.027344 
L 132.295169 247.225186 
" clip-path="url(#p53d52e0f4a)" style="fill: none; stroke: #a85a60; stroke-opacity: 0.55; stroke-width: 1.2"/>
    <path d="M 145.469325 225.027344 
L 145.469325 187.0047 
" clip-path="url(#p53d52e0f4a)" style="fill: none; stroke: #4d8060; stroke-opacity: 0.55; stroke-width: 1.2"/>
    <path d="M 158.64348 225.027344 
L 158.64348 293.348864 
" clip-path="url(#p53d52e0f4a)" style="fill: none; stroke: #a85a60; stroke-opacity: 0.55; stroke-width: 1.2"/>
    <path d="M 171.817636 225.027344 
L 171.817636 223.73283 
" clip-path="url(#p53d52e0f4a)" style="fill: none; stroke: #4d8060; stroke-opacity: 0.55; stroke-width: 1.2"/>
    <path d="M 184.991792 225.027344 
L 184.991792 161.596245 
" clip-path="url(#p53d52e0f4a)" style="fill: none; stroke: #4d8060; stroke-opacity: 0.55; stroke-width: 1.2"/>
    <path d="M 198.165948 225.027344 
L 198.165948 197.225263 
" clip-path="url(#p53d52e0f4a)" style="fill: none; stroke: #4d8060; stroke-opacity: 0.55; stroke-width: 1.2"/>
    <path d="M 211.340103 225.027344 
L 211.340103 187.773758 
" clip-path="url(#p53d52e0f4a)" style="fill: none; stroke: #4d8060; stroke-opacity: 0.55; stroke-width: 1.2"/>
    <path d="M 224.514259 225.027344 
L 224.514259 222.345817 
" clip-path="url(#p53d52e0f4a)" style="fill: none; stroke: #4d8060; stroke-opacity: 0.55; stroke-width: 1.2"/>
    <path d="M 237.688415 225.027344 
L 237.688415 247.631346 
" clip-path="url(#p53d52e0f4a)" style="fill: none; stroke: #a85a60; stroke-opacity: 0.55; stroke-width: 1.2"/>
    <path d="M 250.862571 225.027344 
L 250.862571 235.01966 
" clip-path="url(#p53d52e0f4a)" style="fill: none; stroke: #a85a60; stroke-opacity: 0.55; stroke-width: 1.2"/>
    <path d="M 264.036726 225.027344 
L 264.036726 254.64109 
" clip-path="url(#p53d52e0f4a)" style="fill: none; stroke: #a85a60; stroke-opacity: 0.55; stroke-width: 1.2"/>
    <path d="M 277.210882 225.027344 
L 277.210882 358.550781 
" clip-path="url(#p53d52e0f4a)" style="fill: none; stroke: #a85a60; stroke-opacity: 0.55; stroke-width: 1.2"/>
    <path d="M 290.385038 225.027344 
L 290.385038 297.763206 
" clip-path="url(#p53d52e0f4a)" style="fill: none; stroke: #a85a60; stroke-opacity: 0.55; stroke-width: 1.2"/>
    <path d="M 303.559194 225.027344 
L 303.559194 290.406728 
" clip-path="url(#p53d52e0f4a)" style="fill: none; stroke: #a85a60; stroke-opacity: 0.55; stroke-width: 1.2"/>
    <path d="M 316.733349 225.027344 
L 316.733349 290.735072 
" clip-path="url(#p53d52e0f4a)" style="fill: none; stroke: #a85a60; stroke-opacity: 0.55; stroke-width: 1.2"/>
    <path d="M 329.907505 225.027344 
L 329.907505 290.025477 
" clip-path="url(#p53d52e0f4a)" style="fill: none; stroke: #a85a60; stroke-opacity: 0.55; stroke-width: 1.2"/>
    <path d="M 343.081661 225.027344 
L 343.081661 277.639512 
" clip-path="url(#p53d52e0f4a)" style="fill: none; stroke: #a85a60; stroke-opacity: 0.55; stroke-width: 1.2"/>
    <path d="M 356.255817 225.027344 
L 356.255817 283.027521 
" clip-path="url(#p53d52e0f4a)" style="fill: none; stroke: #a85a60; stroke-opacity: 0.55; stroke-width: 1.2"/>
    <path d="M 369.429972 225.027344 
L 369.429972 240.109671 
" clip-path="url(#p53d52e0f4a)" style="fill: none; stroke: #a85a60; stroke-opacity: 0.55; stroke-width: 1.2"/>
    <path d="M 382.604128 225.027344 
L 382.604128 208.536545 
" clip-path="url(#p53d52e0f4a)" style="fill: none; stroke: #4d8060; stroke-opacity: 0.55; stroke-width: 1.2"/>
    <path d="M 395.778284 225.027344 
L 395.778284 236.647681 
" clip-path="url(#p53d52e0f4a)" style="fill: none; stroke: #a85a60; stroke-opacity: 0.55; stroke-width: 1.2"/>
    <path d="M 408.95244 225.027344 
L 408.95244 234.368348 
" clip-path="url(#p53d52e0f4a)" style="fill: none; stroke: #a85a60; stroke-opacity: 0.55; stroke-width: 1.2"/>
    <path d="M 422.126595 225.027344 
L 422.126595 214.964682 
" clip-path="url(#p53d52e0f4a)" style="fill: none; stroke: #4d8060; stroke-opacity: 0.55; stroke-width: 1.2"/>
    <path d="M 435.300751 225.027344 
L 435.300751 217.505348 
" clip-path="url(#p53d52e0f4a)" style="fill: none; stroke: #4d8060; stroke-opacity: 0.55; stroke-width: 1.2"/>
    <path d="M 448.474907 225.027344 
L 448.474907 249.210253 
" clip-path="url(#p53d52e0f4a)" style="fill: none; stroke: #a85a60; stroke-opacity: 0.55; stroke-width: 1.2"/>
    <path d="M 461.649062 225.027344 
L 461.649062 298.546641 
" clip-path="url(#p53d52e0f4a)" style="fill: none; stroke: #a85a60; stroke-opacity: 0.55; stroke-width: 1.2"/>
    <path d="M 474.823218 225.027344 
L 474.823218 215.497418 
" clip-path="url(#p53d52e0f4a)" style="fill: none; stroke: #4d8060; stroke-opacity: 0.55; stroke-width: 1.2"/>
    <path d="M 487.997374 225.027344 
L 487.997374 277.731598 
" clip-path="url(#p53d52e0f4a)" style="fill: none; stroke: #a85a60; stroke-opacity: 0.55; stroke-width: 1.2"/>
    <path d="M 501.17153 225.027344 
L 501.17153 231.273935 
" clip-path="url(#p53d52e0f4a)" style="fill: none; stroke: #a85a60; stroke-opacity: 0.55; stroke-width: 1.2"/>
    <path d="M 514.345685 225.027344 
L 514.345685 216.015655 
" clip-path="url(#p53d52e0f4a)" style="fill: none; stroke: #4d8060; stroke-opacity: 0.55; stroke-width: 1.2"/>
    <path d="M 527.519841 225.027344 
L 527.519841 239.881096 
" clip-path="url(#p53d52e0f4a)" style="fill: none; stroke: #a85a60; stroke-opacity: 0.55; stroke-width: 1.2"/>
    <path d="M 540.693997 225.027344 
L 540.693997 178.426331 
" clip-path="url(#p53d52e0f4a)" style="fill: none; stroke: #4d8060; stroke-opacity: 0.55; stroke-width: 1.2"/>
    <path d="M 553.868153 225.027344 
L 553.868153 259.990893 
" clip-path="url(#p53d52e0f4a)" style="fill: none; stroke: #a85a60; stroke-opacity: 0.55; stroke-width: 1.2"/>
    <path d="M 567.042308 225.027344 
L 567.042308 196.471314 
" clip-path="url(#p53d52e0f4a)" style="fill: none; stroke: #4d8060; stroke-opacity: 0.55; stroke-width: 1.2"/>
    <path d="M 580.216464 225.027344 
L 580.216464 210.458608 
" clip-path="url(#p53d52e0f4a)" style="fill: none; stroke: #4d8060; stroke-opacity: 0.55; stroke-width: 1.2"/>
    <path d="M 593.39062 225.027344 
L 593.39062 331.912977 
" clip-path="url(#p53d52e0f4a)" style="fill: none; stroke: #a85a60; stroke-opacity: 0.55; stroke-width: 1.2"/>
    <path d="M 606.564776 225.027344 
L 606.564776 264.997202 
" clip-path="url(#p53d52e0f4a)" style="fill: none; stroke: #a85a60; stroke-opacity: 0.55; stroke-width: 1.2"/>
    <path d="M 619.738931 225.027344 
L 619.738931 291.979937 
" clip-path="url(#p53d52e0f4a)" style="fill: none; stroke: #a85a60; stroke-opacity: 0.55; stroke-width: 1.2"/>
    <path d="M 632.913087 225.027344 
L 632.913087 273.661563 
" clip-path="url(#p53d52e0f4a)" style="fill: none; stroke: #a85a60; stroke-opacity: 0.55; stroke-width: 1.2"/>
    <path d="M 646.087243 225.027344 
L 646.087243 254.090742 
" clip-path="url(#p53d52e0f4a)" style="fill: none; stroke: #a85a60; stroke-opacity: 0.55; stroke-width: 1.2"/>
    <path d="M 659.261399 225.027344 
L 659.261399 149.895867 
" clip-path="url(#p53d52e0f4a)" style="fill: none; stroke: #4d8060; stroke-opacity: 0.55; stroke-width: 1.2"/>
    <path d="M 672.435554 225.027344 
L 672.435554 223.865566 
" clip-path="url(#p53d52e0f4a)" style="fill: none; stroke: #4d8060; stroke-opacity: 0.55; stroke-width: 1.2"/>
    <path d="M 685.60971 225.027344 
L 685.60971 224.286359 
" clip-path="url(#p53d52e0f4a)" style="fill: none; stroke: #4d8060; stroke-opacity: 0.55; stroke-width: 1.2"/>
    <path d="M 698.783866 225.027344 
L 698.783866 234.573217 
" clip-path="url(#p53d52e0f4a)" style="fill: none; stroke: #a85a60; stroke-opacity: 0.55; stroke-width: 1.2"/>
    <path d="M 711.958022 225.027344 
L 711.958022 225.225304 
" clip-path="url(#p53d52e0f4a)" style="fill: none; stroke: #a85a60; stroke-opacity: 0.55; stroke-width: 1.2"/>
    <path d="M 725.132177 225.027344 
L 725.132177 176.127206 
" clip-path="url(#p53d52e0f4a)" style="fill: none; stroke: #4d8060; stroke-opacity: 0.55; stroke-width: 1.2"/>
    <path d="M 738.306333 225.027344 
L 738.306333 206.402141 
" clip-path="url(#p53d52e0f4a)" style="fill: none; stroke: #4d8060; stroke-opacity: 0.55; stroke-width: 1.2"/>
    <path d="M 751.480489 225.027344 
L 751.480489 236.611974 
" clip-path="url(#p53d52e0f4a)" style="fill: none; stroke: #a85a60; stroke-opacity: 0.55; stroke-width: 1.2"/>
    <path d="M 764.654645 225.027344 
L 764.654645 200.484228 
" clip-path="url(#p53d52e0f4a)" style="fill: none; stroke: #4d8060; stroke-opacity: 0.55; stroke-width: 1.2"/>
    <path d="M 777.8288 225.027344 
L 777.8288 247.964987 
" clip-path="url(#p53d52e0f4a)" style="fill: none; stroke: #a85a60; stroke-opacity: 0.55; stroke-width: 1.2"/>
    <path d="M 791.002956 225.027344 
L 791.002956 210.171699 
" clip-path="url(#p53d52e0f4a)" style="fill: none; stroke: #4d8060; stroke-opacity: 0.55; stroke-width: 1.2"/>
    <path d="M 804.177112 225.027344 
L 804.177112 224.524314 
" clip-path="url(#p53d52e0f4a)" style="fill: none; stroke: #4d8060; stroke-opacity: 0.55; stroke-width: 1.2"/>
    <path d="M 817.351268 225.027344 
L 817.351268 196.483478 
" clip-path="url(#p53d52e0f4a)" style="fill: none; stroke: #4d8060; stroke-opacity: 0.55; stroke-width: 1.2"/>
    <path d="M 830.525423 225.027344 
L 830.525423 131.284396 
" clip-path="url(#p53d52e0f4a)" style="fill: none; stroke: #4d8060; stroke-opacity: 0.55; stroke-width: 1.2"/>
    <path d="M 843.699579 225.027344 
L 843.699579 240.207633 
" clip-path="url(#p53d52e0f4a)" style="fill: none; stroke: #a85a60; stroke-opacity: 0.55; stroke-width: 1.2"/>
    <path d="M 856.873735 225.027344 
L 856.873735 222.415179 
" clip-path="url(#p53d52e0f4a)" style="fill: none; stroke: #4d8060; stroke-opacity: 0.55; stroke-width: 1.2"/>
   </g>
   <g id="patch_3">
    <path d="M 53.250234 395.937344 
L 53.250234 54.117344 
" style="fill: none; stroke: #dce3e8; stroke-width: 0.8; stroke-linejoin: miter; stroke-linecap: square"/>
   </g>
   <g id="patch_4">
    <path d="M 53.250234 395.937344 
L 870.047891 395.937344 
" style="fill: none; stroke: #dce3e8; stroke-width: 0.8; stroke-linejoin: miter; stroke-linecap: square"/>
   </g>
   <g id="PathCollection_1">
    <defs>
     <path id="C0_0_e9dff9d218" d="M 0 3.354102 
C 0.889518 3.354102 1.742724 3.000693 2.371708 2.371708 
C 3.000693 1.742724 3.354102 0.889518 3.354102 -0 
C 3.354102 -0.889518 3.000693 -1.742724 2.371708 -2.371708 
C 1.742724 -3.000693 0.889518 -3.354102 0 -3.354102 
C -0.889518 -3.354102 -1.742724 -3.000693 -2.371708 -2.371708 
C -3.000693 -1.742724 -3.354102 -0.889518 -3.354102 0 
C -3.354102 0.889518 -3.000693 1.742724 -2.371708 2.371708 
C -1.742724 3.000693 -0.889518 3.354102 0 3.354102 
z
"/>
    </defs>
    <g clip-path="url(#p53d52e0f4a)">
     <use xlink:href="#C0_0_e9dff9d218" x="66.42439" y="202.051029" style="fill: #4d8060; stroke: #ffffff; stroke-width: 0.8"/>
    </g>
    <g clip-path="url(#p53d52e0f4a)">
     <use xlink:href="#C0_0_e9dff9d218" x="79.598546" y="219.120797" style="fill: #4d8060; stroke: #ffffff; stroke-width: 0.8"/>
    </g>
    <g clip-path="url(#p53d52e0f4a)">
     <use xlink:href="#C0_0_e9dff9d218" x="92.772702" y="196.089886" style="fill: #4d8060; stroke: #ffffff; stroke-width: 0.8"/>
    </g>
    <g clip-path="url(#p53d52e0f4a)">
     <use xlink:href="#C0_0_e9dff9d218" x="105.946857" y="199.335789" style="fill: #4d8060; stroke: #ffffff; stroke-width: 0.8"/>
    </g>
    <g clip-path="url(#p53d52e0f4a)">
     <use xlink:href="#C0_0_e9dff9d218" x="119.121013" y="227.566875" style="fill: #a85a60; stroke: #ffffff; stroke-width: 0.8"/>
    </g>
    <g clip-path="url(#p53d52e0f4a)">
     <use xlink:href="#C0_0_e9dff9d218" x="132.295169" y="247.225186" style="fill: #a85a60; stroke: #ffffff; stroke-width: 0.8"/>
    </g>
    <g clip-path="url(#p53d52e0f4a)">
     <use xlink:href="#C0_0_e9dff9d218" x="145.469325" y="187.0047" style="fill: #4d8060; stroke: #ffffff; stroke-width: 0.8"/>
    </g>
    <g clip-path="url(#p53d52e0f4a)">
     <use xlink:href="#C0_0_e9dff9d218" x="158.64348" y="293.348864" style="fill: #a85a60; stroke: #ffffff; stroke-width: 0.8"/>
    </g>
    <g clip-path="url(#p53d52e0f4a)">
     <use xlink:href="#C0_0_e9dff9d218" x="171.817636" y="223.73283" style="fill: #4d8060; stroke: #ffffff; stroke-width: 0.8"/>
    </g>
    <g clip-path="url(#p53d52e0f4a)">
     <use xlink:href="#C0_0_e9dff9d218" x="184.991792" y="161.596245" style="fill: #4d8060; stroke: #ffffff; stroke-width: 0.8"/>
    </g>
    <g clip-path="url(#p53d52e0f4a)">
     <use xlink:href="#C0_0_e9dff9d218" x="198.165948" y="197.225263" style="fill: #4d8060; stroke: #ffffff; stroke-width: 0.8"/>
    </g>
    <g clip-path="url(#p53d52e0f4a)">
     <use xlink:href="#C0_0_e9dff9d218" x="211.340103" y="187.773758" style="fill: #4d8060; stroke: #ffffff; stroke-width: 0.8"/>
    </g>
    <g clip-path="url(#p53d52e0f4a)">
     <use xlink:href="#C0_0_e9dff9d218" x="224.514259" y="222.345817" style="fill: #4d8060; stroke: #ffffff; stroke-width: 0.8"/>
    </g>
    <g clip-path="url(#p53d52e0f4a)">
     <use xlink:href="#C0_0_e9dff9d218" x="237.688415" y="247.631346" style="fill: #a85a60; stroke: #ffffff; stroke-width: 0.8"/>
    </g>
    <g clip-path="url(#p53d52e0f4a)">
     <use xlink:href="#C0_0_e9dff9d218" x="250.862571" y="235.01966" style="fill: #a85a60; stroke: #ffffff; stroke-width: 0.8"/>
    </g>
    <g clip-path="url(#p53d52e0f4a)">
     <use xlink:href="#C0_0_e9dff9d218" x="264.036726" y="254.64109" style="fill: #a85a60; stroke: #ffffff; stroke-width: 0.8"/>
    </g>
    <g clip-path="url(#p53d52e0f4a)">
     <use xlink:href="#C0_0_e9dff9d218" x="277.210882" y="358.550781" style="fill: #a85a60; stroke: #ffffff; stroke-width: 0.8"/>
    </g>
    <g clip-path="url(#p53d52e0f4a)">
     <use xlink:href="#C0_0_e9dff9d218" x="290.385038" y="297.763206" style="fill: #a85a60; stroke: #ffffff; stroke-width: 0.8"/>
    </g>
    <g clip-path="url(#p53d52e0f4a)">
     <use xlink:href="#C0_0_e9dff9d218" x="303.559194" y="290.406728" style="fill: #a85a60; stroke: #ffffff; stroke-width: 0.8"/>
    </g>
    <g clip-path="url(#p53d52e0f4a)">
     <use xlink:href="#C0_0_e9dff9d218" x="316.733349" y="290.735072" style="fill: #a85a60; stroke: #ffffff; stroke-width: 0.8"/>
    </g>
    <g clip-path="url(#p53d52e0f4a)">
     <use xlink:href="#C0_0_e9dff9d218" x="329.907505" y="290.025477" style="fill: #a85a60; stroke: #ffffff; stroke-width: 0.8"/>
    </g>
    <g clip-path="url(#p53d52e0f4a)">
     <use xlink:href="#C0_0_e9dff9d218" x="343.081661" y="277.639512" style="fill: #a85a60; stroke: #ffffff; stroke-width: 0.8"/>
    </g>
    <g clip-path="url(#p53d52e0f4a)">
     <use xlink:href="#C0_0_e9dff9d218" x="356.255817" y="283.027521" style="fill: #a85a60; stroke: #ffffff; stroke-width: 0.8"/>
    </g>
    <g clip-path="url(#p53d52e0f4a)">
     <use xlink:href="#C0_0_e9dff9d218" x="369.429972" y="240.109671" style="fill: #a85a60; stroke: #ffffff; stroke-width: 0.8"/>
    </g>
    <g clip-path="url(#p53d52e0f4a)">
     <use xlink:href="#C0_0_e9dff9d218" x="382.604128" y="208.536545" style="fill: #4d8060; stroke: #ffffff; stroke-width: 0.8"/>
    </g>
    <g clip-path="url(#p53d52e0f4a)">
     <use xlink:href="#C0_0_e9dff9d218" x="395.778284" y="236.647681" style="fill: #a85a60; stroke: #ffffff; stroke-width: 0.8"/>
    </g>
    <g clip-path="url(#p53d52e0f4a)">
     <use xlink:href="#C0_0_e9dff9d218" x="408.95244" y="234.368348" style="fill: #a85a60; stroke: #ffffff; stroke-width: 0.8"/>
    </g>
    <g clip-path="url(#p53d52e0f4a)">
     <use xlink:href="#C0_0_e9dff9d218" x="422.126595" y="214.964682" style="fill: #4d8060; stroke: #ffffff; stroke-width: 0.8"/>
    </g>
    <g clip-path="url(#p53d52e0f4a)">
     <use xlink:href="#C0_0_e9dff9d218" x="435.300751" y="217.505348" style="fill: #4d8060; stroke: #ffffff; stroke-width: 0.8"/>
    </g>
    <g clip-path="url(#p53d52e0f4a)">
     <use xlink:href="#C0_0_e9dff9d218" x="448.474907" y="249.210253" style="fill: #a85a60; stroke: #ffffff; stroke-width: 0.8"/>
    </g>
    <g clip-path="url(#p53d52e0f4a)">
     <use xlink:href="#C0_0_e9dff9d218" x="461.649062" y="298.546641" style="fill: #a85a60; stroke: #ffffff; stroke-width: 0.8"/>
    </g>
    <g clip-path="url(#p53d52e0f4a)">
     <use xlink:href="#C0_0_e9dff9d218" x="474.823218" y="215.497418" style="fill: #4d8060; stroke: #ffffff; stroke-width: 0.8"/>
    </g>
    <g clip-path="url(#p53d52e0f4a)">
     <use xlink:href="#C0_0_e9dff9d218" x="487.997374" y="277.731598" style="fill: #a85a60; stroke: #ffffff; stroke-width: 0.8"/>
    </g>
    <g clip-path="url(#p53d52e0f4a)">
     <use xlink:href="#C0_0_e9dff9d218" x="501.17153" y="231.273935" style="fill: #a85a60; stroke: #ffffff; stroke-width: 0.8"/>
    </g>
    <g clip-path="url(#p53d52e0f4a)">
     <use xlink:href="#C0_0_e9dff9d218" x="514.345685" y="216.015655" style="fill: #4d8060; stroke: #ffffff; stroke-width: 0.8"/>
    </g>
    <g clip-path="url(#p53d52e0f4a)">
     <use xlink:href="#C0_0_e9dff9d218" x="527.519841" y="239.881096" style="fill: #a85a60; stroke: #ffffff; stroke-width: 0.8"/>
    </g>
    <g clip-path="url(#p53d52e0f4a)">
     <use xlink:href="#C0_0_e9dff9d218" x="540.693997" y="178.426331" style="fill: #4d8060; stroke: #ffffff; stroke-width: 0.8"/>
    </g>
    <g clip-path="url(#p53d52e0f4a)">
     <use xlink:href="#C0_0_e9dff9d218" x="553.868153" y="259.990893" style="fill: #a85a60; stroke: #ffffff; stroke-width: 0.8"/>
    </g>
    <g clip-path="url(#p53d52e0f4a)">
     <use xlink:href="#C0_0_e9dff9d218" x="567.042308" y="196.471314" style="fill: #4d8060; stroke: #ffffff; stroke-width: 0.8"/>
    </g>
    <g clip-path="url(#p53d52e0f4a)">
     <use xlink:href="#C0_0_e9dff9d218" x="580.216464" y="210.458608" style="fill: #4d8060; stroke: #ffffff; stroke-width: 0.8"/>
    </g>
    <g clip-path="url(#p53d52e0f4a)">
     <use xlink:href="#C0_0_e9dff9d218" x="593.39062" y="331.912977" style="fill: #a85a60; stroke: #ffffff; stroke-width: 0.8"/>
    </g>
    <g clip-path="url(#p53d52e0f4a)">
     <use xlink:href="#C0_0_e9dff9d218" x="606.564776" y="264.997202" style="fill: #a85a60; stroke: #ffffff; stroke-width: 0.8"/>
    </g>
    <g clip-path="url(#p53d52e0f4a)">
     <use xlink:href="#C0_0_e9dff9d218" x="619.738931" y="291.979937" style="fill: #a85a60; stroke: #ffffff; stroke-width: 0.8"/>
    </g>
    <g clip-path="url(#p53d52e0f4a)">
     <use xlink:href="#C0_0_e9dff9d218" x="632.913087" y="273.661563" style="fill: #a85a60; stroke: #ffffff; stroke-width: 0.8"/>
    </g>
    <g clip-path="url(#p53d52e0f4a)">
     <use xlink:href="#C0_0_e9dff9d218" x="646.087243" y="254.090742" style="fill: #a85a60; stroke: #ffffff; stroke-width: 0.8"/>
    </g>
    <g clip-path="url(#p53d52e0f4a)">
     <use xlink:href="#C0_0_e9dff9d218" x="659.261399" y="149.895867" style="fill: #4d8060; stroke: #ffffff; stroke-width: 0.8"/>
    </g>
    <g clip-path="url(#p53d52e0f4a)">
     <use xlink:href="#C0_0_e9dff9d218" x="672.435554" y="223.865566" style="fill: #4d8060; stroke: #ffffff; stroke-width: 0.8"/>
    </g>
    <g clip-path="url(#p53d52e0f4a)">
     <use xlink:href="#C0_0_e9dff9d218" x="685.60971" y="224.286359" style="fill: #4d8060; stroke: #ffffff; stroke-width: 0.8"/>
    </g>
    <g clip-path="url(#p53d52e0f4a)">
     <use xlink:href="#C0_0_e9dff9d218" x="698.783866" y="234.573217" style="fill: #a85a60; stroke: #ffffff; stroke-width: 0.8"/>
    </g>
    <g clip-path="url(#p53d52e0f4a)">
     <use xlink:href="#C0_0_e9dff9d218" x="711.958022" y="225.225304" style="fill: #a85a60; stroke: #ffffff; stroke-width: 0.8"/>
    </g>
    <g clip-path="url(#p53d52e0f4a)">
     <use xlink:href="#C0_0_e9dff9d218" x="725.132177" y="176.127206" style="fill: #4d8060; stroke: #ffffff; stroke-width: 0.8"/>
    </g>
    <g clip-path="url(#p53d52e0f4a)">
     <use xlink:href="#C0_0_e9dff9d218" x="738.306333" y="206.402141" style="fill: #4d8060; stroke: #ffffff; stroke-width: 0.8"/>
    </g>
    <g clip-path="url(#p53d52e0f4a)">
     <use xlink:href="#C0_0_e9dff9d218" x="751.480489" y="236.611974" style="fill: #a85a60; stroke: #ffffff; stroke-width: 0.8"/>
    </g>
    <g clip-path="url(#p53d52e0f4a)">
     <use xlink:href="#C0_0_e9dff9d218" x="764.654645" y="200.484228" style="fill: #4d8060; stroke: #ffffff; stroke-width: 0.8"/>
    </g>
    <g clip-path="url(#p53d52e0f4a)">
     <use xlink:href="#C0_0_e9dff9d218" x="777.8288" y="247.964987" style="fill: #a85a60; stroke: #ffffff; stroke-width: 0.8"/>
    </g>
    <g clip-path="url(#p53d52e0f4a)">
     <use xlink:href="#C0_0_e9dff9d218" x="791.002956" y="210.171699" style="fill: #4d8060; stroke: #ffffff; stroke-width: 0.8"/>
    </g>
    <g clip-path="url(#p53d52e0f4a)">
     <use xlink:href="#C0_0_e9dff9d218" x="804.177112" y="224.524314" style="fill: #4d8060; stroke: #ffffff; stroke-width: 0.8"/>
    </g>
    <g clip-path="url(#p53d52e0f4a)">
     <use xlink:href="#C0_0_e9dff9d218" x="817.351268" y="196.483478" style="fill: #4d8060; stroke: #ffffff; stroke-width: 0.8"/>
    </g>
    <g clip-path="url(#p53d52e0f4a)">
     <use xlink:href="#C0_0_e9dff9d218" x="830.525423" y="131.284396" style="fill: #4d8060; stroke: #ffffff; stroke-width: 0.8"/>
    </g>
    <g clip-path="url(#p53d52e0f4a)">
     <use xlink:href="#C0_0_e9dff9d218" x="843.699579" y="240.207633" style="fill: #a85a60; stroke: #ffffff; stroke-width: 0.8"/>
    </g>
    <g clip-path="url(#p53d52e0f4a)">
     <use xlink:href="#C0_0_e9dff9d218" x="856.873735" y="222.415179" style="fill: #4d8060; stroke: #ffffff; stroke-width: 0.8"/>
    </g>
   </g>
   <g id="text_12">
    <!-- Positive residuals indicate underprediction | Top 5 errors annotated -->
    <g style="fill: #657786" transform="translate(53.250234 43.289617) scale(0.095 -0.095)">
     <defs>
      <path id="DejaVuSans-33" d="M 1259 4147 
L 1259 2394 
L 2053 2394 
Q 2494 2394 2734 2622 
Q 2975 2850 2975 3272 
Q 2975 3691 2734 3919 
Q 2494 4147 2053 4147 
L 1259 4147 
z
M 628 4666 
L 2053 4666 
Q 2838 4666 3239 4311 
Q 3641 3956 3641 3272 
Q 3641 2581 3239 2228 
Q 2838 1875 2053 1875 
L 1259 1875 
L 1259 0 
L 628 0 
L 628 4666 
z
" transform="scale(0.015625)"/>
      <path id="DejaVuSans-5f" d="M 1344 4891 
L 1344 -1509 
L 813 -1509 
L 813 4891 
L 1344 4891 
z
" transform="scale(0.015625)"/>
      <path id="DejaVuSans-37" d="M -19 4666 
L 3928 4666 
L 3928 4134 
L 2272 4134 
L 2272 0 
L 1638 0 
L 1638 4134 
L -19 4134 
L -19 4666 
z
" transform="scale(0.015625)"/>
     </defs>
     <use xlink:href="#DejaVuSans-33"/>
     <use xlink:href="#DejaVuSans-52" transform="translate(56.734375 0)"/>
     <use xlink:href="#DejaVuSans-56" transform="translate(117.921875 0)"/>
     <use xlink:href="#DejaVuSans-4c" transform="translate(170.015625 0)"/>
     <use xlink:href="#DejaVuSans-57" transform="translate(197.796875 0)"/>
     <use xlink:href="#DejaVuSans-4c" transform="translate(237 0)"/>
     <use xlink:href="#DejaVuSans-59" transform="translate(264.78125 0)"/>
     <use xlink:href="#DejaVuSans-48" transform="translate(323.96875 0)"/>
     <use xlink:href="#DejaVuSans-3" transform="translate(385.5 0)"/>
     <use xlink:href="#DejaVuSans-55" transform="translate(417.28125 0)"/>
     <use xlink:href="#DejaVuSans-48" transform="translate(456.1875 0)"/>
     <use xlink:href="#DejaVuSans-56" transform="translate(517.71875 0)"/>
     <use xlink:href="#DejaVuSans-4c" transform="translate(569.8125 0)"/>
     <use xlink:href="#DejaVuSans-47" transform="translate(597.59375 0)"/>
     <use xlink:href="#DejaVuSans-58" transform="translate(661.078125 0)"/>
     <use xlink:href="#DejaVuSans-44" transform="translate(724.453125 0)"/>
     <use xlink:href="#DejaVuSans-4f" transform="translate(785.734375 0)"/>
     <use xlink:href="#DejaVuSans-56" transform="translate(813.515625 0)"/>
     <use xlink:href="#DejaVuSans-3" transform="translate(865.609375 0)"/>
     <use xlink:href="#DejaVuSans-4c" transform="translate(897.390625 0)"/>
     <use xlink:href="#DejaVuSans-51" transform="translate(925.171875 0)"/>
     <use xlink:href="#DejaVuSans-47" transform="translate(988.546875 0)"/>
     <use xlink:href="#DejaVuSans-4c" transform="translate(1052.03125 0)"/>
     <use xlink:href="#DejaVuSans-46" transform="translate(1079.8125 0)"/>
     <use xlink:href="#DejaVuSans-44" transform="translate(1134.796875 0)"/>
     <use xlink:href="#DejaVuSans-57" transform="translate(1196.078125 0)"/>
     <use xlink:href="#DejaVuSans-48" transform="translate(1235.28125 0)"/>
     <use xlink:href="#DejaVuSans-3" transform="translate(1296.8125 0)"/>
     <use xlink:href="#DejaVuSans-58" transform="translate(1328.59375 0)"/>
     <use xlink:href="#DejaVuSans-51" transform="translate(1391.96875 0)"/>
     <use xlink:href="#DejaVuSans-47" transform="translate(1455.34375 0)"/>
     <use xlink:href="#DejaVuSans-48" transform="translate(1518.828125 0)"/>
     <use xlink:href="#DejaVuSans-55" transform="translate(1580.359375 0)"/>
     <use xlink:href="#DejaVuSans-53" transform="translate(1621.46875 0)"/>
     <use xlink:href="#DejaVuSans-55" transform="translate(1684.953125 0)"/>
     <use xlink:href="#DejaVuSans-48" transform="translate(1723.859375 0)"/>
     <use xlink:href="#DejaVuSans-47" transform="translate(1785.390625 0)"/>
     <use xlink:href="#DejaVuSans-4c" transform="translate(1848.875 0)"/>
     <use xlink:href="#DejaVuSans-46" transform="translate(1876.65625 0)"/>
     <use xlink:href="#DejaVuSans-57" transform="translate(1931.640625 0)"/>
     <use xlink:href="#DejaVuSans-4c" transform="translate(1970.84375 0)"/>
     <use xlink:href="#DejaVuSans-52" transform="translate(1998.625 0)"/>
     <use xlink:href="#DejaVuSans-51" transform="translate(2059.8125 0)"/>
     <use xlink:href="#DejaVuSans-3" transform="translate(2123.1875 0)"/>
     <use xlink:href="#DejaVuSans-5f" transform="translate(2154.96875 0)"/>
     <use xlink:href="#DejaVuSans-3" transform="translate(2188.65625 0)"/>
     <use xlink:href="#DejaVuSans-37" transform="translate(2220.4375 0)"/>
     <use xlink:href="#DejaVuSans-52" transform="translate(2264.53125 0)"/>
     <use xlink:href="#DejaVuSans-53" transform="translate(2325.71875 0)"/>
     <use xlink:href="#DejaVuSans-3" transform="translate(2389.203125 0)"/>
     <use xlink:href="#DejaVuSans-18" transform="translate(2420.984375 0)"/>
     <use xlink:href="#DejaVuSans-3" transform="translate(2484.609375 0)"/>
     <use xlink:href="#DejaVuSans-48" transform="translate(2516.390625 0)"/>
     <use xlink:href="#DejaVuSans-55" transform="translate(2577.921875 0)"/>
     <use xlink:href="#DejaVuSans-55" transform="translate(2617.28125 0)"/>
     <use xlink:href="#DejaVuSans-52" transform="translate(2656.1875 0)"/>
     <use xlink:href="#DejaVuSans-55" transform="translate(2717.375 0)"/>
     <use xlink:href="#DejaVuSans-56" transform="translate(2758.484375 0)"/>
     <use xlink:href="#DejaVuSans-3" transform="translate(2810.578125 0)"/>
     <use xlink:href="#DejaVuSans-44" transform="translate(2842.359375 0)"/>
     <use xlink:href="#DejaVuSans-51" transform="translate(2903.640625 0)"/>
     <use xlink:href="#DejaVuSans-51" transform="translate(2967.015625 0)"/>
     <use xlink:href="#DejaVuSans-52" transform="translate(3030.390625 0)"/>
     <use xlink:href="#DejaVuSans-57" transform="translate(3091.578125 0)"/>
     <use xlink:href="#DejaVuSans-44" transform="translate(3130.78125 0)"/>
     <use xlink:href="#DejaVuSans-57" transform="translate(3192.0625 0)"/>
     <use xlink:href="#DejaVuSans-48" transform="translate(3231.265625 0)"/>
     <use xlink:href="#DejaVuSans-47" transform="translate(3292.796875 0)"/>
    </g>
   </g>
   <g id="text_13">
    <!-- Regression Residuals -->
    <g style="fill: #22313f" transform="translate(53.250234 20.117344) scale(0.17 -0.17)">
     <defs>
      <path id="DejaVuSans-Bold-35" d="M 2297 2597 
Q 2675 2597 2839 2737 
Q 3003 2878 3003 3200 
Q 3003 3519 2839 3656 
Q 2675 3794 2297 3794 
L 1791 3794 
L 1791 2597 
L 2297 2597 
z
M 1791 1766 
L 1791 0 
L 588 0 
L 588 4666 
L 2425 4666 
Q 3347 4666 3776 4356 
Q 4206 4047 4206 3378 
Q 4206 2916 3982 2619 
Q 3759 2322 3309 2181 
Q 3556 2125 3751 1926 
Q 3947 1728 4147 1325 
L 4800 0 
L 3519 0 
L 2950 1159 
Q 2778 1509 2601 1637 
Q 2425 1766 2131 1766 
L 1791 1766 
z
" transform="scale(0.015625)"/>
      <path id="DejaVuSans-Bold-48" d="M 4031 1759 
L 4031 1441 
L 1416 1441 
Q 1456 1047 1700 850 
Q 1944 653 2381 653 
Q 2734 653 3104 758 
Q 3475 863 3866 1075 
L 3866 213 
Q 3469 63 3072 -14 
Q 2675 -91 2278 -91 
Q 1328 -91 801 392 
Q 275 875 275 1747 
Q 275 2603 792 3093 
Q 1309 3584 2216 3584 
Q 3041 3584 3536 3087 
Q 4031 2591 4031 1759 
z
M 2881 2131 
Q 2881 2450 2695 2645 
Q 2509 2841 2209 2841 
Q 1884 2841 1681 2658 
Q 1478 2475 1428 2131 
L 2881 2131 
z
" transform="scale(0.015625)"/>
      <path id="DejaVuSans-Bold-4a" d="M 2919 594 
Q 2688 288 2409 144 
Q 2131 0 1766 0 
Q 1125 0 706 504 
Q 288 1009 288 1791 
Q 288 2575 706 3076 
Q 1125 3578 1766 3578 
Q 2131 3578 2409 3434 
Q 2688 3291 2919 2981 
L 2919 3500 
L 4044 3500 
L 4044 353 
Q 4044 -491 3511 -936 
Q 2978 -1381 1966 -1381 
Q 1638 -1381 1331 -1331 
Q 1025 -1281 716 -1178 
L 716 -306 
Q 1009 -475 1290 -558 
Q 1572 -641 1856 -641 
Q 2406 -641 2662 -400 
Q 2919 -159 2919 353 
L 2919 594 
z
M 2181 2772 
Q 1834 2772 1640 2515 
Q 1447 2259 1447 1791 
Q 1447 1309 1634 1061 
Q 1822 813 2181 813 
Q 2531 813 2725 1069 
Q 2919 1325 2919 1791 
Q 2919 2259 2725 2515 
Q 2531 2772 2181 2772 
z
" transform="scale(0.015625)"/>
      <path id="DejaVuSans-Bold-55" d="M 3138 2547 
Q 2991 2616 2845 2648 
Q 2700 2681 2553 2681 
Q 2122 2681 1889 2404 
Q 1656 2128 1656 1613 
L 1656 0 
L 538 0 
L 538 3500 
L 1656 3500 
L 1656 2925 
Q 1872 3269 2151 3426 
Q 2431 3584 2822 3584 
Q 2878 3584 2943 3579 
Q 3009 3575 3134 3559 
L 3138 2547 
z
" transform="scale(0.015625)"/>
      <path id="DejaVuSans-Bold-56" d="M 3272 3391 
L 3272 2541 
Q 2913 2691 2578 2766 
Q 2244 2841 1947 2841 
Q 1628 2841 1473 2761 
Q 1319 2681 1319 2516 
Q 1319 2381 1436 2309 
Q 1553 2238 1856 2203 
L 2053 2175 
Q 2913 2066 3209 1816 
Q 3506 1566 3506 1031 
Q 3506 472 3093 190 
Q 2681 -91 1863 -91 
Q 1516 -91 1145 -36 
Q 775 19 384 128 
L 384 978 
Q 719 816 1070 734 
Q 1422 653 1784 653 
Q 2113 653 2278 743 
Q 2444 834 2444 1013 
Q 2444 1163 2330 1236 
Q 2216 1309 1875 1350 
L 1678 1375 
Q 931 1469 631 1722 
Q 331 1975 331 2491 
Q 331 3047 712 3315 
Q 1094 3584 1881 3584 
Q 2191 3584 2531 3537 
Q 2872 3491 3272 3391 
z
" transform="scale(0.015625)"/>
      <path id="DejaVuSans-Bold-4c" d="M 538 3500 
L 1656 3500 
L 1656 0 
L 538 0 
L 538 3500 
z
M 538 4863 
L 1656 4863 
L 1656 3950 
L 538 3950 
L 538 4863 
z
" transform="scale(0.015625)"/>
      <path id="DejaVuSans-Bold-52" d="M 2203 2784 
Q 1831 2784 1636 2517 
Q 1441 2250 1441 1747 
Q 1441 1244 1636 976 
Q 1831 709 2203 709 
Q 2569 709 2762 976 
Q 2956 1244 2956 1747 
Q 2956 2250 2762 2517 
Q 2569 2784 2203 2784 
z
M 2203 3584 
Q 3106 3584 3614 3096 
Q 4122 2609 4122 1747 
Q 4122 884 3614 396 
Q 3106 -91 2203 -91 
Q 1297 -91 786 396 
Q 275 884 275 1747 
Q 275 2609 786 3096 
Q 1297 3584 2203 3584 
z
" transform="scale(0.015625)"/>
      <path id="DejaVuSans-Bold-51" d="M 4056 2131 
L 4056 0 
L 2931 0 
L 2931 347 
L 2931 1631 
Q 2931 2084 2911 2256 
Q 2891 2428 2841 2509 
Q 2775 2619 2662 2680 
Q 2550 2741 2406 2741 
Q 2056 2741 1856 2470 
Q 1656 2200 1656 1722 
L 1656 0 
L 538 0 
L 538 3500 
L 1656 3500 
L 1656 2988 
Q 1909 3294 2193 3439 
Q 2478 3584 2822 3584 
Q 3428 3584 3742 3212 
Q 4056 2841 4056 2131 
z
" transform="scale(0.015625)"/>
      <path id="DejaVuSans-Bold-3" transform="scale(0.015625)"/>
      <path id="DejaVuSans-Bold-47" d="M 2919 2988 
L 2919 4863 
L 4044 4863 
L 4044 0 
L 2919 0 
L 2919 506 
Q 2688 197 2409 53 
Q 2131 -91 1766 -91 
Q 1119 -91 703 423 
Q 288 938 288 1747 
Q 288 2556 703 3070 
Q 1119 3584 1766 3584 
Q 2128 3584 2408 3439 
Q 2688 3294 2919 2988 
z
M 2181 722 
Q 2541 722 2730 984 
Q 2919 1247 2919 1747 
Q 2919 2247 2730 2509 
Q 2541 2772 2181 2772 
Q 1825 2772 1636 2509 
Q 1447 2247 1447 1747 
Q 1447 1247 1636 984 
Q 1825 722 2181 722 
z
" transform="scale(0.015625)"/>
      <path id="DejaVuSans-Bold-58" d="M 500 1363 
L 500 3500 
L 1625 3500 
L 1625 3150 
Q 1625 2866 1622 2436 
Q 1619 2006 1619 1863 
Q 1619 1441 1641 1255 
Q 1663 1069 1716 984 
Q 1784 875 1895 815 
Q 2006 756 2150 756 
Q 2500 756 2700 1025 
Q 2900 1294 2900 1772 
L 2900 3500 
L 4019 3500 
L 4019 0 
L 2900 0 
L 2900 506 
Q 2647 200 2364 54 
Q 2081 -91 1741 -91 
Q 1134 -91 817 281 
Q 500 653 500 1363 
z
" transform="scale(0.015625)"/>
      <path id="DejaVuSans-Bold-44" d="M 2106 1575 
Q 1756 1575 1579 1456 
Q 1403 1338 1403 1106 
Q 1403 894 1545 773 
Q 1688 653 1941 653 
Q 2256 653 2472 879 
Q 2688 1106 2688 1447 
L 2688 1575 
L 2106 1575 
z
M 3816 1997 
L 3816 0 
L 2688 0 
L 2688 519 
Q 2463 200 2181 54 
Q 1900 -91 1497 -91 
Q 953 -91 614 226 
Q 275 544 275 1050 
Q 275 1666 698 1953 
Q 1122 2241 2028 2241 
L 2688 2241 
L 2688 2328 
Q 2688 2594 2478 2717 
Q 2269 2841 1825 2841 
Q 1466 2841 1156 2769 
Q 847 2697 581 2553 
L 581 3406 
Q 941 3494 1303 3539 
Q 1666 3584 2028 3584 
Q 2975 3584 3395 3211 
Q 3816 2838 3816 1997 
z
" transform="scale(0.015625)"/>
      <path id="DejaVuSans-Bold-4f" d="M 538 4863 
L 1656 4863 
L 1656 0 
L 538 0 
L 538 4863 
z
" transform="scale(0.015625)"/>
     </defs>
     <use xlink:href="#DejaVuSans-Bold-35"/>
     <use xlink:href="#DejaVuSans-Bold-48" transform="translate(77 0)"/>
     <use xlink:href="#DejaVuSans-Bold-4a" transform="translate(144.828125 0)"/>
     <use xlink:href="#DejaVuSans-Bold-55" transform="translate(216.40625 0)"/>
     <use xlink:href="#DejaVuSans-Bold-48" transform="translate(265.71875 0)"/>
     <use xlink:href="#DejaVuSans-Bold-56" transform="translate(333.546875 0)"/>
     <use xlink:href="#DejaVuSans-Bold-56" transform="translate(393.0625 0)"/>
     <use xlink:href="#DejaVuSans-Bold-4c" transform="translate(452.578125 0)"/>
     <use xlink:href="#DejaVuSans-Bold-52" transform="translate(486.859375 0)"/>
     <use xlink:href="#DejaVuSans-Bold-51" transform="translate(555.5625 0)"/>
     <use xlink:href="#DejaVuSans-Bold-3" transform="translate(626.75 0)"/>
     <use xlink:href="#DejaVuSans-Bold-35" transform="translate(661.5625 0)"/>
     <use xlink:href="#DejaVuSans-Bold-48" transform="translate(738.5625 0)"/>
     <use xlink:href="#DejaVuSans-Bold-56" transform="translate(806.390625 0)"/>
     <use xlink:href="#DejaVuSans-Bold-4c" transform="translate(865.90625 0)"/>
     <use xlink:href="#DejaVuSans-Bold-47" transform="translate(900.1875 0)"/>
     <use xlink:href="#DejaVuSans-Bold-58" transform="translate(971.765625 0)"/>
     <use xlink:href="#DejaVuSans-Bold-44" transform="translate(1042.953125 0)"/>
     <use xlink:href="#DejaVuSans-Bold-4f" transform="translate(1110.4375 0)"/>
     <use xlink:href="#DejaVuSans-Bold-56" transform="translate(1144.71875 0)"/>
    </g>
   </g>
   <g id="patch_5">
    <path d="M 290.212682 377.839296 
Q 284.271247 369.025019 278.329811 360.210743 
" style="fill: none; stroke: #657786; stroke-width: 0.8; stroke-linecap: round"/>
   </g>
   <g id="text_14">
    <g id="patch_6">
     <path d="M 285.210882 405.504102 
L 315.319476 405.504102 
Q 317.869476 405.504102 317.869476 402.954102 
L 317.869476 382.550781 
Q 317.869476 380.000781 315.319476 380.000781 
L 285.210882 380.000781 
Q 282.660882 380.000781 282.660882 382.550781 
L 282.660882 402.954102 
Q 282.660882 405.504102 285.210882 405.504102 
z
" style="fill: #ffffff; opacity: 0.94; stroke: #dce3e8; stroke-linejoin: miter"/>
    </g>
    <!-- Nov 17 -->
    <g style="fill: #22313f" transform="translate(285.210882 389.859619) scale(0.085 -0.085)">
     <defs>
      <path id="DejaVuSans-1a" d="M 525 4666 
L 3525 4666 
L 3525 4397 
L 1831 0 
L 1172 0 
L 2766 4134 
L 525 4134 
L 525 4666 
z
" transform="scale(0.015625)"/>
     </defs>
     <use xlink:href="#DejaVuSans-31"/>
     <use xlink:href="#DejaVuSans-52" transform="translate(74.8125 0)"/>
     <use xlink:href="#DejaVuSans-59" transform="translate(136 0)"/>
     <use xlink:href="#DejaVuSans-3" transform="translate(195.1875 0)"/>
     <use xlink:href="#DejaVuSans-14" transform="translate(226.96875 0)"/>
     <use xlink:href="#DejaVuSans-1a" transform="translate(290.59375 0)"/>
    </g>
    <!-- -37.0 -->
    <g style="fill: #22313f" transform="translate(285.210882 400.061279) scale(0.085 -0.085)">
     <defs>
      <path id="DejaVuSans-16" d="M 2597 2516 
Q 3050 2419 3304 2112 
Q 3559 1806 3559 1356 
Q 3559 666 3084 287 
Q 2609 -91 1734 -91 
Q 1441 -91 1130 -33 
Q 819 25 488 141 
L 488 750 
Q 750 597 1062 519 
Q 1375 441 1716 441 
Q 2309 441 2620 675 
Q 2931 909 2931 1356 
Q 2931 1769 2642 2001 
Q 2353 2234 1838 2234 
L 1294 2234 
L 1294 2753 
L 1863 2753 
Q 2328 2753 2575 2939 
Q 2822 3125 2822 3475 
Q 2822 3834 2567 4026 
Q 2313 4219 1838 4219 
Q 1578 4219 1281 4162 
Q 984 4106 628 3988 
L 628 4550 
Q 988 4650 1302 4700 
Q 1616 4750 1894 4750 
Q 2613 4750 3031 4423 
Q 3450 4097 3450 3541 
Q 3450 3153 3228 2886 
Q 3006 2619 2597 2516 
z
" transform="scale(0.015625)"/>
      <path id="DejaVuSans-11" d="M 684 794 
L 1344 794 
L 1344 0 
L 684 0 
L 684 794 
z
" transform="scale(0.015625)"/>
     </defs>
     <use xlink:href="#DejaVuSans-10"/>
     <use xlink:href="#DejaVuSans-16" transform="translate(36.078125 0)"/>
     <use xlink:href="#DejaVuSans-1a" transform="translate(99.703125 0)"/>
     <use xlink:href="#DejaVuSans-11" transform="translate(163.328125 0)"/>
     <use xlink:href="#DejaVuSans-13" transform="translate(195.109375 0)"/>
    </g>
   </g>
   <g id="patch_7">
    <path d="M 578.081415 351.293549 
Q 585.116511 342.387523 592.151606 333.481497 
" style="fill: none; stroke: #657786; stroke-width: 0.8; stroke-linecap: round"/>
   </g>
   <g id="text_15">
    <g id="patch_8">
     <path d="M 551.39062 378.866297 
L 581.357104 378.866297 
Q 583.907104 378.866297 583.907104 376.316297 
L 583.907104 355.912977 
Q 583.907104 353.362977 581.357104 353.362977 
L 551.39062 353.362977 
Q 548.84062 353.362977 548.84062 355.912977 
L 548.84062 376.316297 
Q 548.84062 378.866297 551.39062 378.866297 
z
" style="fill: #ffffff; opacity: 0.94; stroke: #dce3e8; stroke-linejoin: miter"/>
    </g>
    <!-- Dec 11 -->
    <g style="fill: #22313f" transform="translate(551.39062 363.221815) scale(0.085 -0.085)">
     <use xlink:href="#DejaVuSans-27"/>
     <use xlink:href="#DejaVuSans-48" transform="translate(77 0)"/>
     <use xlink:href="#DejaVuSans-46" transform="translate(138.53125 0)"/>
     <use xlink:href="#DejaVuSans-3" transform="translate(193.515625 0)"/>
     <use xlink:href="#DejaVuSans-14" transform="translate(225.296875 0)"/>
     <use xlink:href="#DejaVuSans-14" transform="translate(288.921875 0)"/>
    </g>
    <!-- -29.6 -->
    <g style="fill: #22313f" transform="translate(551.39062 373.423475) scale(0.085 -0.085)">
     <defs>
      <path id="DejaVuSans-1c" d="M 703 97 
L 703 672 
Q 941 559 1184 500 
Q 1428 441 1663 441 
Q 2288 441 2617 861 
Q 2947 1281 2994 2138 
Q 2813 1869 2534 1725 
Q 2256 1581 1919 1581 
Q 1219 1581 811 2004 
Q 403 2428 403 3163 
Q 403 3881 828 4315 
Q 1253 4750 1959 4750 
Q 2769 4750 3195 4129 
Q 3622 3509 3622 2328 
Q 3622 1225 3098 567 
Q 2575 -91 1691 -91 
Q 1453 -91 1209 -44 
Q 966 3 703 97 
z
M 1959 2075 
Q 2384 2075 2632 2365 
Q 2881 2656 2881 3163 
Q 2881 3666 2632 3958 
Q 2384 4250 1959 4250 
Q 1534 4250 1286 3958 
Q 1038 3666 1038 3163 
Q 1038 2656 1286 2365 
Q 1534 2075 1959 2075 
z
" transform="scale(0.015625)"/>
      <path id="DejaVuSans-19" d="M 2113 2584 
Q 1688 2584 1439 2293 
Q 1191 2003 1191 1497 
Q 1191 994 1439 701 
Q 1688 409 2113 409 
Q 2538 409 2786 701 
Q 3034 994 3034 1497 
Q 3034 2003 2786 2293 
Q 2538 2584 2113 2584 
z
M 3366 4563 
L 3366 3988 
Q 3128 4100 2886 4159 
Q 2644 4219 2406 4219 
Q 1781 4219 1451 3797 
Q 1122 3375 1075 2522 
Q 1259 2794 1537 2939 
Q 1816 3084 2150 3084 
Q 2853 3084 3261 2657 
Q 3669 2231 3669 1497 
Q 3669 778 3244 343 
Q 2819 -91 2113 -91 
Q 1303 -91 875 529 
Q 447 1150 447 2328 
Q 447 3434 972 4092 
Q 1497 4750 2381 4750 
Q 2619 4750 2861 4703 
Q 3103 4656 3366 4563 
z
" transform="scale(0.015625)"/>
     </defs>
     <use xlink:href="#DejaVuSans-10"/>
     <use xlink:href="#DejaVuSans-15" transform="translate(36.078125 0)"/>
     <use xlink:href="#DejaVuSans-1c" transform="translate(99.703125 0)"/>
     <use xlink:href="#DejaVuSans-11" transform="translate(163.328125 0)"/>
     <use xlink:href="#DejaVuSans-19" transform="translate(195.109375 0)"/>
    </g>
   </g>
   <g id="patch_9">
    <path d="M 839.546933 121.784626 
Q 835.724465 125.809736 831.901996 129.834846 
" style="fill: none; stroke: #657786; stroke-width: 0.8; stroke-linecap: round"/>
   </g>
   <g id="text_16">
    <g id="patch_10">
     <path d="M 838.525423 119.834396 
L 868.491908 119.834396 
Q 871.041908 119.834396 871.041908 117.284396 
L 871.041908 96.881075 
Q 871.041908 94.331075 868.491908 94.331075 
L 838.525423 94.331075 
Q 835.975423 94.331075 835.975423 96.881075 
L 835.975423 117.284396 
Q 835.975423 119.834396 838.525423 119.834396 
z
" style="fill: #ffffff; opacity: 0.94; stroke: #dce3e8; stroke-linejoin: miter"/>
    </g>
    <!-- Dec 29 -->
    <g style="fill: #22313f" transform="translate(838.525423 104.189913) scale(0.085 -0.085)">
     <use xlink:href="#DejaVuSans-27"/>
     <use xlink:href="#DejaVuSans-48" transform="translate(77 0)"/>
     <use xlink:href="#DejaVuSans-46" transform="translate(138.53125 0)"/>
     <use xlink:href="#DejaVuSans-3" transform="translate(193.515625 0)"/>
     <use xlink:href="#DejaVuSans-15" transform="translate(225.296875 0)"/>
     <use xlink:href="#DejaVuSans-1c" transform="translate(288.921875 0)"/>
    </g>
    <!-- +25.9 -->
    <g style="fill: #22313f" transform="translate(838.525423 114.391574) scale(0.085 -0.085)">
     <defs>
      <path id="DejaVuSans-e" d="M 2944 4013 
L 2944 2272 
L 4684 2272 
L 4684 1741 
L 2944 1741 
L 2944 0 
L 2419 0 
L 2419 1741 
L 678 1741 
L 678 2272 
L 2419 2272 
L 2419 4013 
L 2944 4013 
z
" transform="scale(0.015625)"/>
     </defs>
     <use xlink:href="#DejaVuSans-e"/>
     <use xlink:href="#DejaVuSans-15" transform="translate(83.796875 0)"/>
     <use xlink:href="#DejaVuSans-18" transform="translate(147.421875 0)"/>
     <use xlink:href="#DejaVuSans-11" transform="translate(211.046875 0)"/>
     <use xlink:href="#DejaVuSans-1c" transform="translate(242.828125 0)"/>
    </g>
   </g>
   <g id="patch_11">
    <path d="M 648.525303 140.278454 
Q 653.147643 144.419154 657.769983 148.559855 
" style="fill: none; stroke: #657786; stroke-width: 0.8; stroke-linecap: round"/>
   </g>
   <g id="text_17">
    <g id="patch_12">
     <path d="M 617.261399 138.445867 
L 647.227883 138.445867 
Q 649.777883 138.445867 649.777883 135.895867 
L 649.777883 115.492547 
Q 649.777883 112.942547 647.227883 112.942547 
L 617.261399 112.942547 
Q 614.711399 112.942547 614.711399 115.492547 
L 614.711399 135.895867 
Q 614.711399 138.445867 617.261399 138.445867 
z
" style="fill: #ffffff; opacity: 0.94; stroke: #dce3e8; stroke-linejoin: miter"/>
    </g>
    <!-- Dec 16 -->
    <g style="fill: #22313f" transform="translate(617.261399 122.801385) scale(0.085 -0.085)">
     <use xlink:href="#DejaVuSans-27"/>
     <use xlink:href="#DejaVuSans-48" transform="translate(77 0)"/>
     <use xlink:href="#DejaVuSans-46" transform="translate(138.53125 0)"/>
     <use xlink:href="#DejaVuSans-3" transform="translate(193.515625 0)"/>
     <use xlink:href="#DejaVuSans-14" transform="translate(225.296875 0)"/>
     <use xlink:href="#DejaVuSans-19" transform="translate(288.921875 0)"/>
    </g>
    <!-- +20.8 -->
    <g style="fill: #22313f" transform="translate(617.261399 133.003045) scale(0.085 -0.085)">
     <defs>
      <path id="DejaVuSans-1b" d="M 2034 2216 
Q 1584 2216 1326 1975 
Q 1069 1734 1069 1313 
Q 1069 891 1326 650 
Q 1584 409 2034 409 
Q 2484 409 2743 651 
Q 3003 894 3003 1313 
Q 3003 1734 2745 1975 
Q 2488 2216 2034 2216 
z
M 1403 2484 
Q 997 2584 770 2862 
Q 544 3141 544 3541 
Q 544 4100 942 4425 
Q 1341 4750 2034 4750 
Q 2731 4750 3128 4425 
Q 3525 4100 3525 3541 
Q 3525 3141 3298 2862 
Q 3072 2584 2669 2484 
Q 3125 2378 3379 2068 
Q 3634 1759 3634 1313 
Q 3634 634 3220 271 
Q 2806 -91 2034 -91 
Q 1263 -91 848 271 
Q 434 634 434 1313 
Q 434 1759 690 2068 
Q 947 2378 1403 2484 
z
M 1172 3481 
Q 1172 3119 1398 2916 
Q 1625 2713 2034 2713 
Q 2441 2713 2670 2916 
Q 2900 3119 2900 3481 
Q 2900 3844 2670 4047 
Q 2441 4250 2034 4250 
Q 1625 4250 1398 4047 
Q 1172 3844 1172 3481 
z
" transform="scale(0.015625)"/>
     </defs>
     <use xlink:href="#DejaVuSans-e"/>
     <use xlink:href="#DejaVuSans-15" transform="translate(83.796875 0)"/>
     <use xlink:href="#DejaVuSans-13" transform="translate(147.421875 0)"/>
     <use xlink:href="#DejaVuSans-11" transform="translate(211.046875 0)"/>
     <use xlink:href="#DejaVuSans-1b" transform="translate(242.828125 0)"/>
    </g>
   </g>
   <g id="patch_13">
    <path d="M 474.61079 317.835156 
Q 468.687667 309.020879 462.764543 300.206602 
" style="fill: none; stroke: #657786; stroke-width: 0.8; stroke-linecap: round"/>
   </g>
   <g id="text_18">
    <g id="patch_14">
     <path d="M 469.649062 345.499961 
L 499.615547 345.499961 
Q 502.165547 345.499961 502.165547 342.949961 
L 502.165547 322.546641 
Q 502.165547 319.996641 499.615547 319.996641 
L 469.649062 319.996641 
Q 467.099062 319.996641 467.099062 322.546641 
L 467.099062 342.949961 
Q 467.099062 345.499961 469.649062 345.499961 
z
" style="fill: #ffffff; opacity: 0.94; stroke: #dce3e8; stroke-linejoin: miter"/>
    </g>
    <!-- Dec 01 -->
    <g style="fill: #22313f" transform="translate(469.649062 329.855479) scale(0.085 -0.085)">
     <use xlink:href="#DejaVuSans-27"/>
     <use xlink:href="#DejaVuSans-48" transform="translate(77 0)"/>
     <use xlink:href="#DejaVuSans-46" transform="translate(138.53125 0)"/>
     <use xlink:href="#DejaVuSans-3" transform="translate(193.515625 0)"/>
     <use xlink:href="#DejaVuSans-13" transform="translate(225.296875 0)"/>
     <use xlink:href="#DejaVuSans-14" transform="translate(288.921875 0)"/>
    </g>
    <!-- -20.3 -->
    <g style="fill: #22313f" transform="translate(469.649062 340.057139) scale(0.085 -0.085)">
     <use xlink:href="#DejaVuSans-10"/>
     <use xlink:href="#DejaVuSans-15" transform="translate(36.078125 0)"/>
     <use xlink:href="#DejaVuSans-13" transform="translate(99.703125 0)"/>
     <use xlink:href="#DejaVuSans-11" transform="translate(163.328125 0)"/>
     <use xlink:href="#DejaVuSans-16" transform="translate(195.109375 0)"/>
    </g>
   </g>
  </g>
  <g id="text_19">
   <!-- Synthetic demo data - not personal health records -->
   <g style="fill: #657786" transform="translate(685.819437 430.539398) scale(0.083 -0.083)">
    <defs>
     <path id="DejaVuSans-36" d="M 3425 4513 
L 3425 3897 
Q 3066 4069 2747 4153 
Q 2428 4238 2131 4238 
Q 1616 4238 1336 4038 
Q 1056 3838 1056 3469 
Q 1056 3159 1242 3001 
Q 1428 2844 1947 2747 
L 2328 2669 
Q 3034 2534 3370 2195 
Q 3706 1856 3706 1288 
Q 3706 609 3251 259 
Q 2797 -91 1919 -91 
Q 1588 -91 1214 -16 
Q 841 59 441 206 
L 441 856 
Q 825 641 1194 531 
Q 1563 422 1919 422 
Q 2459 422 2753 634 
Q 3047 847 3047 1241 
Q 3047 1584 2836 1778 
Q 2625 1972 2144 2069 
L 1759 2144 
Q 1053 2284 737 2584 
Q 422 2884 422 3419 
Q 422 4038 858 4394 
Q 1294 4750 2059 4750 
Q 2388 4750 2728 4690 
Q 3069 4631 3425 4513 
z
" transform="scale(0.015625)"/>
     <path id="DejaVuSans-5c" d="M 2059 -325 
Q 1816 -950 1584 -1140 
Q 1353 -1331 966 -1331 
L 506 -1331 
L 506 -850 
L 844 -850 
Q 1081 -850 1212 -737 
Q 1344 -625 1503 -206 
L 1606 56 
L 191 3500 
L 800 3500 
L 1894 763 
L 2988 3500 
L 3597 3500 
L 2059 -325 
z
" transform="scale(0.015625)"/>
     <path id="DejaVuSans-4b" d="M 3513 2113 
L 3513 0 
L 2938 0 
L 2938 2094 
Q 2938 2591 2744 2837 
Q 2550 3084 2163 3084 
Q 1697 3084 1428 2787 
Q 1159 2491 1159 1978 
L 1159 0 
L 581 0 
L 581 4863 
L 1159 4863 
L 1159 2956 
Q 1366 3272 1645 3428 
Q 1925 3584 2291 3584 
Q 2894 3584 3203 3211 
Q 3513 2838 3513 2113 
z
" transform="scale(0.015625)"/>
     <path id="DejaVuSans-50" d="M 3328 2828 
Q 3544 3216 3844 3400 
Q 4144 3584 4550 3584 
Q 5097 3584 5394 3201 
Q 5691 2819 5691 2113 
L 5691 0 
L 5113 0 
L 5113 2094 
Q 5113 2597 4934 2840 
Q 4756 3084 4391 3084 
Q 3944 3084 3684 2787 
Q 3425 2491 3425 1978 
L 3425 0 
L 2847 0 
L 2847 2094 
Q 2847 2600 2669 2842 
Q 2491 3084 2119 3084 
Q 1678 3084 1418 2786 
Q 1159 2488 1159 1978 
L 1159 0 
L 581 0 
L 581 3500 
L 1159 3500 
L 1159 2956 
Q 1356 3278 1631 3431 
Q 1906 3584 2284 3584 
Q 2666 3584 2933 3390 
Q 3200 3197 3328 2828 
z
" transform="scale(0.015625)"/>
    </defs>
    <use xlink:href="#DejaVuSans-36"/>
    <use xlink:href="#DejaVuSans-5c" transform="translate(63.484375 0)"/>
    <use xlink:href="#DejaVuSans-51" transform="translate(122.671875 0)"/>
    <use xlink:href="#DejaVuSans-57" transform="translate(186.046875 0)"/>
    <use xlink:href="#DejaVuSans-4b" transform="translate(225.25 0)"/>
    <use xlink:href="#DejaVuSans-48" transform="translate(288.625 0)"/>
    <use xlink:href="#DejaVuSans-57" transform="translate(350.15625 0)"/>
    <use xlink:href="#DejaVuSans-4c" transform="translate(389.359375 0)"/>
    <use xlink:href="#DejaVuSans-46" transform="translate(417.140625 0)"/>
    <use xlink:href="#DejaVuSans-3" transform="translate(472.125 0)"/>
    <use xlink:href="#DejaVuSans-47" transform="translate(503.90625 0)"/>
    <use xlink:href="#DejaVuSans-48" transform="translate(567.390625 0)"/>
    <use xlink:href="#DejaVuSans-50" transform="translate(628.921875 0)"/>
    <use xlink:href="#DejaVuSans-52" transform="translate(726.328125 0)"/>
    <use xlink:href="#DejaVuSans-3" transform="translate(787.515625 0)"/>
    <use xlink:href="#DejaVuSans-47" transform="translate(819.296875 0)"/>
    <use xlink:href="#DejaVuSans-44" transform="translate(882.78125 0)"/>
    <use xlink:href="#DejaVuSans-57" transform="translate(944.0625 0)"/>
    <use xlink:href="#DejaVuSans-44" transform="translate(983.265625 0)"/>
    <use xlink:href="#DejaVuSans-3" transform="translate(1044.546875 0)"/>
    <use xlink:href="#DejaVuSans-10" transform="translate(1076.328125 0)"/>
    <use xlink:href="#DejaVuSans-3" transform="translate(1112.40625 0)"/>
    <use xlink:href="#DejaVuSans-51" transform="translate(1144.1875 0)"/>
    <use xlink:href="#DejaVuSans-52" transform="translate(1207.5625 0)"/>
    <use xlink:href="#DejaVuSans-57" transform="translate(1268.75 0)"/>
    <use xlink:href="#DejaVuSans-3" transform="translate(1307.953125 0)"/>
    <use xlink:href="#DejaVuSans-53" transform="translate(1339.734375 0)"/>
    <use xlink:href="#DejaVuSans-48" transform="translate(1403.21875 0)"/>
    <use xlink:href="#DejaVuSans-55" transform="translate(1464.75 0)"/>
    <use xlink:href="#DejaVuSans-56" transform="translate(1505.859375 0)"/>
    <use xlink:href="#DejaVuSans-52" transform="translate(1557.953125 0)"/>
    <use xlink:href="#DejaVuSans-51" transform="translate(1619.140625 0)"/>
    <use xlink:href="#DejaVuSans-44" transform="translate(1682.515625 0)"/>
    <use xlink:href="#DejaVuSans-4f" transform="translate(1743.796875 0)"/>
    <use xlink:href="#DejaVuSans-3" transform="translate(1771.578125 0)"/>
    <use xlink:href="#DejaVuSans-4b" transform="translate(1803.359375 0)"/>
    <use xlink:href="#DejaVuSans-48" transform="translate(1866.734375 0)"/>
    <use xlink:href="#DejaVuSans-44" transform="translate(1928.265625 0)"/>
    <use xlink:href="#DejaVuSans-4f" transform="translate(1989.546875 0)"/>
    <use xlink:href="#DejaVuSans-57" transform="translate(2017.328125 0)"/>
    <use xlink:href="#DejaVuSans-4b" transform="translate(2056.53125 0)"/>
    <use xlink:href="#DejaVuSans-3" transform="translate(2119.90625 0)"/>
    <use xlink:href="#DejaVuSans-55" transform="translate(2151.6875 0)"/>
    <use xlink:href="#DejaVuSans-48" transform="translate(2190.59375 0)"/>
    <use xlink:href="#DejaVuSans-46" transform="translate(2252.125 0)"/>
    <use xlink:href="#DejaVuSans-52" transform="translate(2307.109375 0)"/>
    <use xlink:href="#DejaVuSans-55" transform="translate(2368.296875 0)"/>
    <use xlink:href="#DejaVuSans-47" transform="translate(2407.65625 0)"/>
    <use xlink:href="#DejaVuSans-56" transform="translate(2471.140625 0)"/>
   </g>
  </g>
 </g>
 <defs>
  <clipPath id="p53d52e0f4a">
   <rect x="53.250234" y="54.117344" width="816.797656" height="341.82"/>
  </clipPath>
 </defs>
</svg>
